<svg width="17" height="17" viewBox="0 0 17 17" fill="none" xmlns="http://www.w3.org/2000/svg">
<g id="Google">
<g id="super-g">
<path id="Shape" d="M8.50007 3.28667C10.0962 3.28667 11.1728 3.97611 11.7867 4.55222L14.1856 2.21C12.7123 0.840555 10.7951 0 8.50007 0C5.17563 0 2.30452 1.90778 0.906738 4.68444L3.65507 6.81889C4.34452 4.76944 6.25229 3.28667 8.50007 3.28667Z" fill="white"/>
<path id="Shape_2" d="M16.66 8.68895C16.66 7.99006 16.6033 7.48006 16.4806 6.95117H8.5V10.1056H13.1844C13.09 10.8895 12.58 12.0701 11.4467 12.8634L14.1289 14.9412C15.7344 13.4584 16.66 11.2767 16.66 8.68895Z" fill="white"/>
<path id="Shape_3" d="M3.66444 10.1812C3.485 9.65235 3.38111 9.08568 3.38111 8.50013C3.38111 7.91457 3.485 7.3479 3.655 6.81901L0.906667 4.68457C0.330555 5.83679 0 7.13068 0 8.50013C0 9.86957 0.330555 11.1635 0.906667 12.3157L3.66444 10.1812Z" fill="white"/>
<path id="Shape_4" d="M8.4999 17C10.7949 17 12.7216 16.2445 14.1288 14.9412L11.4466 12.8634C10.7288 13.3639 9.76546 13.7134 8.4999 13.7134C6.25213 13.7134 4.34435 12.2306 3.66435 10.1812L0.916016 12.3156C2.31379 15.0923 5.17546 17 8.4999 17Z" fill="white"/>
</g>
</g>
</svg>
