<svg width="22" height="15" viewBox="0 0 22 15" fill="none" xmlns="http://www.w3.org/2000/svg">
<path d="M8.83012 0.613576C5.35395 0.678029 3.31294 0.837013 2.6727 1.09483C2.09262 1.33115 1.60708 1.77373 1.31919 2.31944C0.945359 3.02842 0.747703 4.58389 0.700438 7.1835C0.666063 9.25889 0.777781 11.1452 1.01411 12.3397C1.26763 13.6417 1.96802 14.3851 3.17544 14.6386C4.27544 14.8706 7.19301 15.0081 11.0215 15.0038C14.9317 15.0038 17.7161 14.8749 18.8848 14.6386C19.2672 14.5612 19.8086 14.2905 20.0922 14.0413C20.3887 13.7792 20.6895 13.328 20.8141 12.9585C21.1579 11.9444 21.3684 8.99248 21.2739 6.54326C21.145 3.21748 20.8743 2.17334 19.959 1.48154C19.5379 1.16358 19.2457 1.04756 18.5926 0.931544C17.7848 0.794044 15.8426 0.673732 13.793 0.630763C11.3954 0.583497 10.536 0.579201 8.83012 0.613576ZM11.6016 6.25107C13.0497 7.08467 14.2313 7.78506 14.2313 7.80654C14.227 7.84092 9.0063 10.8788 8.95044 10.8788C8.94614 10.8788 8.93755 9.49522 8.93755 7.80654C8.93755 6.11787 8.94614 4.73428 8.95473 4.73428C8.96333 4.73428 10.1536 5.41748 11.6016 6.25107Z" fill="#BFC6CD"/>
</svg>
