<svg width="19" height="19" viewBox="0 0 19 19" fill="none" xmlns="http://www.w3.org/2000/svg">
<path fill-rule="evenodd" clip-rule="evenodd" d="M8.55451 0.85127C8.73827 0.850983 8.93595 0.851071 9.14928 0.851167L9.50088 0.85127C12.3176 0.85127 12.6514 0.86138 13.7637 0.911929C14.7923 0.958962 15.3506 1.13083 15.7224 1.27523C16.2147 1.46643 16.5657 1.69501 16.9347 2.06424C17.304 2.43347 17.5325 2.78511 17.7242 3.27742C17.8686 3.64885 18.0407 4.20709 18.0875 5.23566C18.138 6.34775 18.149 6.68182 18.149 9.4972C18.149 12.3126 18.138 12.6466 18.0875 13.7587C18.0404 14.7873 17.8686 15.3455 17.7242 15.717C17.533 16.2093 17.304 16.5598 16.9347 16.9288C16.5655 17.2981 16.2149 17.5266 15.7224 17.7179C15.351 17.8629 14.7923 18.0343 13.7637 18.0814C12.6517 18.1319 12.3176 18.1429 9.50088 18.1429C6.68396 18.1429 6.35012 18.1319 5.23803 18.0814C4.20946 18.0339 3.65122 17.862 3.27913 17.7176C2.78682 17.5264 2.43518 17.2979 2.06594 16.9286C1.69671 16.5594 1.46814 16.2086 1.27649 15.7161C1.1321 15.3447 0.960012 14.7864 0.913198 13.7579C0.862649 12.6458 0.852539 12.3117 0.852539 9.49456C0.852539 6.67742 0.862649 6.34511 0.913198 5.23303C0.960231 4.20445 1.1321 3.64621 1.27649 3.27435C1.4677 2.78204 1.69671 2.43039 2.06594 2.06116C2.43518 1.69193 2.78682 1.46336 3.27913 1.27171C3.651 1.12665 4.20946 0.955226 5.23803 0.907973C6.21122 0.864017 6.58836 0.850831 8.55451 0.848633V0.85127ZM15.1321 2.60292C14.4332 2.60292 13.8662 3.16929 13.8662 3.86841C13.8662 4.56731 14.4332 5.13434 15.1321 5.13434C15.831 5.13434 16.398 4.56731 16.398 3.86841C16.398 3.16951 15.831 2.60248 15.1321 2.60248V2.60292ZM4.08331 9.49962C4.08331 6.50782 6.5089 4.08215 9.50066 4.08204C12.4925 4.08204 14.9176 6.50775 14.9176 9.49962C14.9176 12.4915 12.4928 14.9161 9.50088 14.9161C6.50902 14.9161 4.08331 12.4915 4.08331 9.49962Z" fill="#BFC6CD"/>
<path d="M9.50086 5.9834C11.4428 5.9834 13.0173 7.55768 13.0173 9.49988C13.0173 11.4419 11.4428 13.0164 9.50086 13.0164C7.55866 13.0164 5.98438 11.4419 5.98438 9.49988C5.98438 7.55768 7.55866 5.9834 9.50086 5.9834Z" fill="#BFC6CD"/>
</svg>
