<svg width="19" height="19" viewBox="0 0 19 19" fill="none" xmlns="http://www.w3.org/2000/svg">
<path d="M8.56311 0.719925C6.41421 0.938633 4.26531 2.04606 2.85933 3.66034C1.45682 5.27114 0.706961 7.14232 0.623644 9.23914C0.502139 12.4121 2.10253 15.4046 4.83812 17.1057C5.75114 17.675 6.99743 18.1506 7.966 18.2999L8.1118 18.3242V14.5715V10.8187H7.40013H6.68846L6.69541 9.59324L6.70582 8.37125L7.41055 8.36083L8.1118 8.35389V8.00326C8.1118 6.76739 8.45549 5.62524 9.06996 4.80248C10.0281 3.52495 11.7847 3.00768 13.8329 3.39303C14.2113 3.46593 14.2218 3.4694 14.2218 3.55966C14.2218 3.73324 14.1107 5.97587 14.1003 6.01753C14.0898 6.04877 14.0412 6.0453 13.9024 6.00711C13.6177 5.93074 13.0345 5.88908 12.7706 5.92727C12.3089 5.99323 11.9132 6.26748 11.7118 6.66324C11.5625 6.95832 11.4862 7.32978 11.4584 7.86787L11.4341 8.35389L12.5242 8.36083L13.6142 8.37125L13.6246 9.59324L13.6316 10.8187H12.5554H11.4792V14.5194C11.4792 18.0257 11.4827 18.2166 11.5417 18.1992C11.573 18.1923 11.7257 18.1506 11.8785 18.109C13.4788 17.6785 15.0827 16.6683 16.1797 15.4012C17.36 14.0403 18.0474 12.5302 18.3043 10.7319C18.3772 10.2112 18.3911 8.93017 18.3251 8.4754C18.0925 6.86806 17.5197 5.43778 16.6206 4.24356C15.1139 2.24047 12.854 0.962934 10.3891 0.719925C9.95173 0.674795 8.99705 0.678267 8.56311 0.719925Z" fill="#BFC6CD"/>
</svg>
