<svg width="17" height="15" viewBox="0 0 17 15" fill="none" xmlns="http://www.w3.org/2000/svg">
<g id="Hide">
<path id="Stroke 1" d="M6.72741 9.37382C6.2722 8.91941 5.99512 8.30191 5.99512 7.6092C5.99512 6.22141 7.11295 5.10278 8.49995 5.10278C9.18633 5.10278 9.81808 5.38066 10.2654 5.83507" stroke="#1CBCFF" stroke-width="1.3" stroke-linecap="round" stroke-linejoin="round"/>
<path id="Stroke 3" d="M10.9577 8.05322C10.774 9.07447 9.96968 9.88039 8.94922 10.0656" stroke="#1CBCFF" stroke-width="1.3" stroke-linecap="round" stroke-linejoin="round"/>
<path id="Stroke 5" d="M4.26822 11.8322C3.01184 10.8458 1.94784 9.40498 1.17676 7.60869C1.95576 5.80448 3.02688 4.35573 4.29117 3.3614C5.54755 2.36707 6.99709 1.82715 8.49967 1.82715C10.011 1.82715 11.4597 2.37498 12.724 3.37644" stroke="#1CBCFF" stroke-width="1.3" stroke-linecap="round" stroke-linejoin="round"/>
<path id="Stroke 7" d="M14.396 5.11768C14.9406 5.84126 15.4196 6.67647 15.8225 7.60826C14.2653 11.2159 11.5135 13.389 8.49962 13.389C7.81641 13.389 7.1427 13.2782 6.49512 13.0621" stroke="#1CBCFF" stroke-width="1.3" stroke-linecap="round" stroke-linejoin="round"/>
<path id="Stroke 9" d="M14.7436 1.36426L2.25586 13.852" stroke="#1CBCFF" stroke-width="1.3" stroke-linecap="round" stroke-linejoin="round"/>
</g>
</svg>
