<svg width="16" height="16" viewBox="0 0 16 16" fill="none" xmlns="http://www.w3.org/2000/svg">
<g id="Group 22">
<g id="Group">
<path id="Vector" d="M3.47495 15.9999H0.0585938V4.57129H3.47495V15.9999ZM16.0016 15.9999H12.5852V9.89472C12.5852 8.30386 12.0204 7.51186 10.901 7.51186C10.0139 7.51186 9.4513 7.95529 9.16888 8.84329C9.16888 10.2856 9.16888 15.9999 9.16888 15.9999H5.75252C5.75252 15.9999 5.79808 5.71415 5.75252 4.57129H8.44917L8.65757 6.857H8.72817C9.42853 5.71415 10.548 4.93929 12.083 4.93929C13.2503 4.93929 14.1943 5.265 14.9152 6.08329C15.6406 6.90272 16.0016 8.00215 16.0016 9.54615V15.9999Z" fill="#272323"/>
</g>
<g id="Group_2">
<path id="Vector_2" d="M1.76512 3.42857C2.73997 3.42857 3.53024 2.66106 3.53024 1.71429C3.53024 0.767512 2.73997 0 1.76512 0C0.790271 0 0 0.767512 0 1.71429C0 2.66106 0.790271 3.42857 1.76512 3.42857Z" fill="#272323"/>
</g>
</g>
</svg>
