<svg width="18" height="20" viewBox="0 0 18 20" fill="none" xmlns="http://www.w3.org/2000/svg">
<g id="Bag">
<path id="Combined Shape" fill-rule="evenodd" clip-rule="evenodd" d="M13.9303 5C13.9621 4.92913 13.977 4.85189 13.9739 4.77432H14C13.8882 2.10591 11.6849 0 9.00494 0C6.325 0 4.12172 2.10591 4.00989 4.77432C3.9967 4.84898 3.9967 4.92535 4.00989 5H3.93171C2.65022 5 1.28034 5.84597 0.882639 8.12007L0.104905 14.3147C-0.531424 18.8629 1.81062 20 4.86853 20H13.1585C16.2075 20 18.4789 18.3535 17.9133 14.3147L17.1444 8.12007C16.676 5.90964 15.3503 5 14.0865 5H13.9303ZM12.4932 5C12.4654 4.92794 12.4506 4.85153 12.4497 4.77432C12.4497 2.85682 10.8899 1.30238 8.96575 1.30238C7.04164 1.30238 5.48184 2.85682 5.48184 4.77432C5.49502 4.84898 5.49502 4.92535 5.48184 5H12.4932ZM6.09668 10.1494C5.60858 10.1494 5.21289 9.7421 5.21289 9.23972C5.21289 8.73734 5.60858 8.33008 6.09668 8.33008C6.58478 8.33008 6.98047 8.73734 6.98047 9.23972C6.98047 9.7421 6.58478 10.1494 6.09668 10.1494ZM11.002 9.23972C11.002 9.7421 11.3976 10.1494 11.8857 10.1494C12.3738 10.1494 12.7695 9.7421 12.7695 9.23972C12.7695 8.73734 12.3738 8.33008 11.8857 8.33008C11.3976 8.33008 11.002 8.73734 11.002 9.23972Z" fill="white"/>
</g>
</svg>
