<svg xmlns="http://www.w3.org/2000/svg" xmlns:xlink="http://www.w3.org/1999/xlink" width="816.34" height="869.866" viewBox="0 0 816.34 869.866">
  <defs>
    <clipPath id="clip-path">
      <rect id="Rectangle_8" data-name="Rectangle 8" width="816.34" height="869.866" transform="translate(0 180.002)" fill="none"/>
    </clipPath>
  </defs>
  <g id="Group_20" data-name="Group 20" transform="translate(0 -180.002)" clip-path="url(#clip-path)">
    <g id="Group_19" data-name="Group 19" style="mix-blend-mode: multiply;isolation: isolate">
      <path id="Path_24" data-name="Path 24" d="M641.327,627.316l-229.4-229.395L251.767,558.651,411.931,718.815,358.606,772.33,251.767,879.546h0l.566.563,79.8,79.236h0l7.923,7.924c.616.487,1.265.9,1.888,1.37l.942.893,2.318,1.476a118.263,118.263,0,0,0,22.083,12.422l1.633.816,2.22.711a113.972,113.972,0,0,0,25.884,6.61l.194.038.287.022a113.062,113.062,0,0,0,12,.923l2.426.186,2.64-.2c3.677-.087,7.344-.37,11-.815l1.637-.121,1.163-.233a113.737,113.737,0,0,0,12.365-2.473l.615-.124h.007l3.61-1.156c1.8-.547,3.6-1.08,5.373-1.72l5.165-1.653,13.583-6.79,4.691-3.127c1.245-.8,2.475-1.621,3.7-2.468l3.492-2.329,1.2-1.078c.538-.411,1.1-.765,1.634-1.185l2.833-2.834,5.655-5.09,80.365-79.8L732.826,718.815Z" fill="#ff002e"/>
      <path id="Path_25" data-name="Path 25" d="M-229.293,879.546,332.132,318.121h0l-60.274-60.273-20.091-20.09h0l-7.543-6.413-.946-.946c-.374-.3-.77-.542-1.146-.833l-1.683-1.431-11.885-8.489-13.583-6.225h0l-14.149-5.094L186.683,205.5,171.4,204.365,156.686,205.5l-14.149,2.828-7.956,2.864c-.494.17-.984.355-1.477.532l-4.715,1.7h0l-2.736,1.254c-.566.248-1.124.516-1.688.773l-9.159,4.2-6.7,4.567c-.356.235-.706.483-1.059.722l-4.694,3.2-1.237,1.107c-.524.4-1.073.746-1.593,1.157l-2.549,2.55L91.6,237.758,11.237,318.121-550.187,879.545h0l80.365,80.082,80.365,80.082,40.042-40.041,120.123-120.123Z" fill="#ff002e"/>
    </g>
  </g>
</svg>
