<svg xmlns="http://www.w3.org/2000/svg" width="462.356" height="462.356" viewBox="0 0 462.356 462.356">
  <path id="Path_23" data-name="Path 23" d="M1477.351,3016.791h53.714a32.185,32.185,0,0,0,32.185-32.185v-53.714a32.184,32.184,0,0,1,32.184-32.185h50.389a32.184,32.184,0,0,0,32.184-32.184V2701.377a32.185,32.185,0,0,0-32.184-32.185H1215.651v430.171a32.186,32.186,0,0,0,32.185,32.185h165.146a32.185,32.185,0,0,0,32.184-32.185v-50.388A32.184,32.184,0,0,1,1477.351,3016.791Zm-146.942-32.185V2816.134a32.184,32.184,0,0,1,32.184-32.184h168.472a32.185,32.185,0,0,1,32.185,32.184v50.388a32.185,32.185,0,0,1-32.185,32.185h-53.714a32.185,32.185,0,0,0-32.185,32.185v53.714a32.184,32.184,0,0,1-32.184,32.184h-50.389A32.184,32.184,0,0,1,1330.409,2984.606Z" transform="translate(-1215.651 -2669.192)" fill="#ff002e" style="mix-blend-mode: multiply;isolation: isolate"/>
</svg>
