<svg xmlns="http://www.w3.org/2000/svg" width="629.846" height="629.845" viewBox="0 0 629.846 629.845">
  <path id="Kontur_12" data-name="Kontur 12" d="M5379.209,822.2h73.172a43.844,43.844,0,0,0,43.844-43.844V705.185a43.844,43.844,0,0,1,43.843-43.844h68.642a43.844,43.844,0,0,0,43.844-43.843V392.527a43.844,43.844,0,0,0-43.844-43.843h-586v586a43.843,43.843,0,0,0,43.844,43.844h224.97a43.843,43.843,0,0,0,43.843-43.844V866.044A43.844,43.844,0,0,1,5379.209,822.2Zm-200.172-43.844v-229.5a43.843,43.843,0,0,1,43.843-43.843h229.5a43.843,43.843,0,0,1,43.844,43.843V617.5a43.843,43.843,0,0,1-43.844,43.844h-73.172a43.844,43.844,0,0,0-43.844,43.844v73.172a43.843,43.843,0,0,1-43.843,43.843H5222.88A43.843,43.843,0,0,1,5179.037,778.357Z" transform="translate(-5022.708 -348.684)" fill="#ff002e"/>
</svg>
