<svg xmlns="http://www.w3.org/2000/svg" width="23.115" height="23.116" viewBox="0 0 23.115 23.116">
  <g id="Сгруппировать_90" data-name="Сгруппировать 90" transform="translate(-1844.499 -71.382)">
    <path id="Контур_187" data-name="Контур 187" d="M1861.73,78.648a2.41,2.41,0,0,0-1.382-1.381,4.024,4.024,0,0,0-1.351-.251c-.767-.035-1-.042-2.94-.042s-2.174.007-2.941.042a4.023,4.023,0,0,0-1.351.251,2.4,2.4,0,0,0-1.381,1.381,4,4,0,0,0-.251,1.351c-.035.768-.042,1-.042,2.941s.007,2.173.042,2.94a4.011,4.011,0,0,0,.251,1.352,2.412,2.412,0,0,0,1.381,1.381,4.03,4.03,0,0,0,1.351.25c.767.035,1,.043,2.941.043s2.173-.008,2.94-.043a4.03,4.03,0,0,0,1.351-.25,2.417,2.417,0,0,0,1.382-1.381,4.044,4.044,0,0,0,.25-1.352c.035-.767.042-1,.042-2.94s-.007-2.173-.042-2.941A4.036,4.036,0,0,0,1861.73,78.648Zm-5.673,8.029a3.737,3.737,0,1,1,3.736-3.737A3.737,3.737,0,0,1,1856.057,86.677Zm3.884-6.748a.874.874,0,1,1,.873-.874A.873.873,0,0,1,1859.941,79.929Z"/>
    <path id="Kontur_188" data-name="Kontur 188" d="M1856.057,80.514a2.426,2.426,0,1,0,2.425,2.426A2.426,2.426,0,0,0,1856.057,80.514Z"/>
    <path id="Kontur_189" data-name="Kontur 189" d="M1856.057,71.382a11.558,11.558,0,1,0,11.557,11.558A11.558,11.558,0,0,0,1856.057,71.382Zm7.233,14.558a5.335,5.335,0,0,1-.338,1.767,3.722,3.722,0,0,1-2.129,2.128,5.331,5.331,0,0,1-1.766.338c-.776.036-1.024.044-3,.044s-2.225-.008-3-.044a5.331,5.331,0,0,1-1.766-.338,3.722,3.722,0,0,1-2.129-2.128,5.36,5.36,0,0,1-.338-1.767c-.035-.776-.044-1.024-.044-3s.009-2.224.044-3a5.359,5.359,0,0,1,.338-1.766,3.722,3.722,0,0,1,2.129-2.128,5.354,5.354,0,0,1,1.766-.339c.776-.035,1.024-.043,3-.043s2.224.008,3,.043a5.354,5.354,0,0,1,1.766.339,3.722,3.722,0,0,1,2.129,2.128,5.334,5.334,0,0,1,.338,1.766c.035.777.044,1.024.044,3S1863.325,85.164,1863.29,85.94Z"/>
  </g>
</svg>
