<svg xmlns="http://www.w3.org/2000/svg" width="23.116" height="23.116" viewBox="0 0 23.116 23.116">
  <path id="Kontur_190" data-name="Kontur 190" d="M1825.782,71.382A11.558,11.558,0,1,0,1837.34,82.94,11.558,11.558,0,0,0,1825.782,71.382Zm-3.815,17.873c-.822-.009-1.644-.007-2.466,0-.132,0-.172-.032-.171-.168q0-4.4,0-8.79c0-.122.03-.165.158-.164.834,0,1.669.007,2.5,0,.16,0,.182.061.181.2,0,1.459,0,2.918,0,4.377s0,2.894,0,4.341C1822.174,89.208,1822.134,89.257,1821.967,89.255Zm-1.213-10.378a1.641,1.641,0,1,1,1.643-1.649A1.653,1.653,0,0,1,1820.754,78.877Zm12.054,10.19c0,.149-.041.188-.188.187q-1.234-.01-2.468,0c-.145,0-.176-.043-.175-.18q.006-2.278,0-4.557a4.085,4.085,0,0,0-.132-1.132,1.272,1.272,0,0,0-1.4-.991,1.528,1.528,0,0,0-1.607,1.526,5.658,5.658,0,0,0-.044.713c0,1.477,0,2.955,0,4.432,0,.147-.036.191-.187.189q-1.242-.01-2.485,0c-.133,0-.171-.035-.171-.169q.006-4.389,0-8.776c0-.145.047-.178.184-.177q1.18.009,2.36,0c.145,0,.182.046.179.183-.008.349,0,.7,0,1.049.189-.213.346-.43.541-.614a2.972,2.972,0,0,1,2.136-.842,4.9,4.9,0,0,1,1.343.163,2.626,2.626,0,0,1,1.864,1.961,8.22,8.22,0,0,1,.249,2.246C1832.812,85.874,1832.805,87.47,1832.808,89.067Z" transform="translate(-1814.224 -71.382)"/>
</svg>
