<svg width="28" height="28" viewBox="0 0 28 28" fill="none" xmlns="http://www.w3.org/2000/svg">
<path fill-rule="evenodd" clip-rule="evenodd" d="M14 0C6.26801 0 0 6.26801 0 14C0 21.732 6.26801 28 14 28C21.732 28 28 21.732 28 14C28 6.26801 21.732 0 14 0ZM6.72266 11.5957H9.89536V21.1284H6.72266V11.5957ZM10.1044 8.64657C10.0838 7.7119 9.41545 7 8.33009 7C7.24473 7 6.53516 7.7119 6.53516 8.64657C6.53516 9.56188 7.22376 10.2943 8.28891 10.2943H8.30918C9.41545 10.2943 10.1044 9.56188 10.1044 8.64657ZM17.6813 11.3711C19.7691 11.3711 21.3343 12.7338 21.3343 15.6619L21.3341 21.1276H18.1616V16.0276C18.1616 14.7466 17.7025 13.8725 16.5539 13.8725C15.6774 13.8725 15.1553 14.4618 14.926 15.0309C14.8421 15.2349 14.8215 15.5191 14.8215 15.804V21.1279H11.6484C11.6484 21.1279 11.6903 12.4897 11.6484 11.5952H14.8215V12.9454C15.2426 12.2963 15.9968 11.3711 17.6813 11.3711Z" fill="white"/>
</svg>
