<svg width="28" height="28" viewBox="0 0 28 28" fill="none" xmlns="http://www.w3.org/2000/svg">
<path fill-rule="evenodd" clip-rule="evenodd" d="M14 28C6.26801 28 0 21.732 0 14C0 6.26801 6.26801 0 14 0C21.732 0 28 6.26801 28 14C28 21.732 21.732 28 14 28ZM14.1932 13.2147C15.3396 13.2147 20.9132 10.0804 20.9132 10.0804L20.9222 9.52039C20.9222 8.90215 20.4204 8.40039 19.8005 8.40039H8.58596C7.9666 8.40039 7.46484 8.90215 7.46484 9.52039V10.0194C7.46484 10.0194 13.0996 13.2147 14.1932 13.2147ZM7.4738 11.7598C7.47324 11.7598 13.0996 14.754 14.1932 14.754C15.3922 14.754 20.9132 11.7598 20.9132 11.7598L20.9222 18.4798C20.9222 19.098 20.4204 19.5998 19.8005 19.5998H8.58596C7.96716 19.5998 7.46484 19.098 7.46484 18.4798L7.4738 11.7598Z" fill="white"/>
</svg>
