<svg width="28" height="28" viewBox="0 0 28 28" fill="none" xmlns="http://www.w3.org/2000/svg">
<path fill-rule="evenodd" clip-rule="evenodd" d="M0 13.938C0 21.5363 6.25628 27.6978 13.9767 27.6978C21.6956 27.6978 27.9534 21.5363 27.9534 13.938C27.9534 6.33969 21.6956 0.179688 13.9767 0.179688C6.25628 0.179688 0 6.33969 0 13.938ZM9.34275 25.5487C4.63145 23.7317 1.29297 19.2193 1.29297 13.9376C1.29297 7.04959 6.96389 1.46875 13.9597 1.46875C20.9556 1.46875 26.6265 7.04959 26.6265 13.9376C26.6265 20.8241 20.9556 26.4064 13.9597 26.4064C12.6528 26.4064 11.3937 26.2119 10.2096 25.8494C10.7245 25.0212 11.497 23.6639 11.783 22.5807C11.9372 21.9972 12.5719 19.6172 12.5719 19.6172C12.9851 20.3923 14.1918 21.0496 15.4763 21.0496C19.2953 21.0496 22.0484 17.5909 22.0484 13.2936C22.0484 9.17464 18.6336 6.0917 14.2397 6.0917C8.77386 6.0917 5.87103 9.70517 5.87103 13.6384C5.87103 15.4658 6.8591 17.7441 8.44001 18.4692C8.68104 18.5782 8.80979 18.5296 8.86518 18.3012C8.88215 18.2314 8.92734 18.0509 8.98148 17.8347C9.06106 17.517 9.15997 17.1221 9.21699 16.8879C9.24693 16.7612 9.23196 16.6536 9.12866 16.5298C8.60469 15.905 8.187 14.7555 8.187 13.6841C8.187 10.9342 10.3024 8.27275 13.9058 8.27275C17.0183 8.27275 19.1965 10.3595 19.1965 13.3452C19.1965 16.7184 17.4659 19.0557 15.2143 19.0557C13.9717 19.0557 13.0405 18.0448 13.3384 16.8024C13.4677 16.2668 13.6405 15.716 13.8086 15.1805C14.1057 14.2336 14.3879 13.3344 14.3879 12.6511C14.3879 11.6932 13.8654 10.8944 12.786 10.8944C11.5135 10.8944 10.494 12.1883 10.494 13.9229C10.494 15.0266 10.8728 15.7738 10.8728 15.7738C10.8728 15.7738 9.61671 20.998 9.38766 21.9706C9.13316 23.0494 9.23196 24.5629 9.34275 25.5487Z" fill="white"/>
</svg>
