<svg width="28" height="28" viewBox="0 0 28 28" fill="none" xmlns="http://www.w3.org/2000/svg">
<path fill-rule="evenodd" clip-rule="evenodd" d="M0 14C0 21.732 6.26801 28 14 28C21.732 28 28 21.732 28 14C28 6.26801 21.732 0 14 0C6.26801 0 0 6.26801 0 14ZM21.9334 11.4955C23.2197 11.4955 24.2659 12.5373 24.2659 13.8177C24.2659 14.6643 23.8066 15.404 23.126 15.809C23.154 16.0024 23.1691 16.1979 23.1691 16.3956C23.1691 19.6977 19.1416 22.3844 14.1915 22.3844C9.24097 22.3844 5.21395 19.6977 5.21395 16.3956C5.21395 16.1824 5.23151 15.9718 5.26412 15.7638C4.62427 15.3497 4.19922 14.633 4.19922 13.8177C4.19922 12.5373 5.24542 11.4957 6.53174 11.4955C7.10318 11.4955 7.62743 11.7025 8.03355 12.044C9.58233 11.0684 11.649 10.4559 13.927 10.4114L15.2589 6.22003C15.3289 5.99709 15.5611 5.8661 15.7895 5.91945L19.239 6.72744C19.5477 6.07179 20.2152 5.61523 20.9895 5.61523C22.0554 5.61523 22.923 6.47862 22.923 7.5402C22.923 8.60178 22.0556 9.46516 20.9895 9.46516C19.9449 9.46516 19.0937 8.63583 19.0593 7.60445L15.9895 6.88477L14.8644 10.4253C17.004 10.5317 18.9361 11.1399 20.3976 12.0746C20.8083 11.7155 21.345 11.4955 21.9334 11.4955Z" fill="white"/>
<path d="M22.8815 14.8875C22.5534 14.0463 21.956 13.2769 21.1562 12.6215C21.3806 12.476 21.6479 12.3906 21.9352 12.3906C22.726 12.3906 23.3693 13.0311 23.3693 13.8184C23.3688 14.2441 23.1796 14.6259 22.8815 14.8875Z" fill="white"/>
<path d="M20.9884 6.50977C21.5591 6.50977 22.0234 6.97222 22.0234 7.54047C22.0234 8.10872 21.5591 8.57094 20.9884 8.57094C20.4174 8.57094 19.9531 8.10872 19.9531 7.54047C19.9531 6.97222 20.4174 6.50977 20.9884 6.50977Z" fill="white"/>
<path fill-rule="evenodd" clip-rule="evenodd" d="M14.1924 21.4893C18.6467 21.4893 22.2715 19.2038 22.2715 16.3953C22.2715 16.3006 22.2667 16.2071 22.2587 16.1133C22.2327 15.8141 22.1634 15.5219 22.0588 15.2381C21.7931 14.5218 21.2894 13.863 20.6003 13.2979C20.3718 13.1102 20.1237 12.9327 19.8567 12.7671C18.3982 11.8611 16.3972 11.3008 14.1924 11.3008C12.019 11.3008 10.0448 11.8456 8.59106 12.729C8.32472 12.8909 8.07594 13.0643 7.84631 13.248C7.1287 13.8217 6.60332 14.4946 6.32945 15.2279C6.22388 15.5108 6.15455 15.8027 6.12742 16.1013C6.11875 16.1987 6.11328 16.2963 6.11328 16.3953C6.11328 19.204 9.73737 21.4893 14.1924 21.4893ZM11.2366 13.9316C11.9943 13.9316 12.6086 14.5644 12.6086 15.3185C12.6086 16.0725 11.9943 16.6839 11.2366 16.6848C10.4793 16.6848 9.84375 16.0725 9.84375 15.3185C9.84375 14.5644 10.479 13.9316 11.2366 13.9316ZM17.2503 13.9316C16.4928 13.9316 15.8555 14.5641 15.8555 15.3183C15.8555 16.0727 16.4928 16.6846 17.2503 16.6846C18.0081 16.6846 18.6228 16.0732 18.6228 15.3183C18.6224 14.5637 18.0081 13.9316 17.2503 13.9316ZM14.2424 19.3799C15.4963 19.3799 16.3521 19.1345 16.8604 18.6292C17.0362 18.4548 17.3208 18.4548 17.4966 18.6296C17.6719 18.804 17.6719 19.0868 17.4961 19.2619C16.8111 19.943 15.7467 20.2746 14.2424 20.2746C14.2385 20.2746 14.2351 20.2733 14.2314 20.2733C14.2296 20.2733 14.2279 20.2736 14.2262 20.274C14.2245 20.2743 14.2227 20.2746 14.2207 20.2746C12.7162 20.2746 11.6519 19.943 10.9676 19.2614C10.792 19.0873 10.792 18.8042 10.9676 18.6292C11.143 18.4543 11.4276 18.4543 11.6029 18.6292C12.1105 19.1345 12.9665 19.3799 14.2207 19.3799C14.2224 19.3799 14.224 19.3802 14.2256 19.3804C14.2274 19.3807 14.2293 19.3811 14.2314 19.3811C14.2332 19.3811 14.235 19.3808 14.2367 19.3805C14.2386 19.3802 14.2404 19.3799 14.2424 19.3799Z" fill="white"/>
<path d="M5.09766 13.8184C5.09766 13.0313 5.74093 12.3906 6.53151 12.3906C6.79853 12.3906 7.048 12.4653 7.26258 12.5927C6.46242 13.2399 5.86361 14.0016 5.5259 14.8341C5.26161 14.5751 5.09766 14.2157 5.09766 13.8184Z" fill="white"/>
</svg>
