<svg width="28" height="28" viewBox="0 0 28 28" fill="none" xmlns="http://www.w3.org/2000/svg">
<path fill-rule="evenodd" clip-rule="evenodd" d="M14 0C6.26801 0 0 6.26801 0 14C0 21.732 6.26801 28 14 28C21.732 28 28 21.732 28 14C28 6.26801 21.732 0 14 0ZM18.9986 20.4452C18.4757 21.1378 16.895 21.7095 15.2997 21.7095C11.3352 21.7095 9.19086 20.2395 9.19086 17.1233V13.2197H7.5667C7.52986 13.2197 7.5 13.1897 7.5 13.1526V9.98314C7.5 9.95425 7.51835 9.92861 7.54559 9.91946L7.72303 9.85985C9.31329 9.32491 10.1595 8.21072 10.3861 6.35351C10.4409 5.90439 10.8154 5.66211 11.14 5.66211H15.6786C15.7154 5.66211 15.7453 5.69216 15.7453 5.72925V9.3271C15.7453 9.36416 15.7751 9.39421 15.812 9.39421H18.4C18.4368 9.39421 18.4667 9.42427 18.4667 9.46135V13.1526C18.4667 13.1897 18.4368 13.2197 18.4 13.2197H15.8008C15.764 13.2197 15.7341 13.2498 15.7341 13.2868V16.895C15.7365 17.0436 15.7519 17.1639 15.7776 17.2623C15.7852 17.2914 15.8122 17.3106 15.8421 17.3106H18.0513C18.0799 17.3106 18.1053 17.329 18.1145 17.3562L19.1033 20.3064L18.9986 20.4452Z" fill="white"/>
<path d="M18.0652 20.1512C17.5812 20.6278 16.5878 20.9819 15.6358 20.9984C15.5998 20.999 15.5646 20.9993 15.5291 20.9993H15.5288C12.3974 20.9992 11.5619 18.5509 11.5619 17.1042V12.6587C11.5619 12.622 11.5328 12.5923 11.497 12.5923H9.98282C9.94702 12.5923 9.91797 12.5626 9.91797 12.5259V10.5007C9.91797 10.4737 9.93452 10.4495 9.95917 10.4397C11.5776 9.79442 12.4814 8.5123 12.7191 6.52921C12.7324 6.41904 12.8211 6.41602 12.822 6.41602H14.8433C14.8791 6.41602 14.9081 6.44575 14.9081 6.48243V10.0417C14.9081 10.0784 14.9372 10.1081 14.973 10.1081H17.4891C17.5249 10.1081 17.5539 10.1379 17.5539 10.1745V12.5259C17.5539 12.5626 17.5249 12.5923 17.4891 12.5923H14.9621C14.9263 12.5923 14.8973 12.622 14.8973 12.6587L14.8974 16.8836C14.9123 17.8349 15.3618 18.3171 16.2335 18.3171C16.5847 18.3171 16.987 18.2334 17.3543 18.0897C17.3886 18.0763 17.4265 18.0942 17.4382 18.1298L18.081 20.0814C18.0891 20.106 18.0835 20.1332 18.0652 20.1512Z" fill="white"/>
<path d="M11.082 14.5827H9.33203V13.416H11.025C11.0565 13.416 11.082 13.4455 11.082 13.4818V14.5827Z" fill="white"/>
</svg>
