<svg width="28" height="28" viewBox="0 0 28 28" fill="none" xmlns="http://www.w3.org/2000/svg">
<path fill-rule="evenodd" clip-rule="evenodd" d="M14 0C6.26801 0 0 6.26801 0 14C0 21.732 6.26801 28 14 28C21.732 28 28 21.732 28 14C28 6.26801 21.732 0 14 0ZM15.1417 18.4204C15.0037 18.5659 14.7342 18.5953 14.7342 18.5953H13.8416C13.8416 18.5953 11.8725 18.7114 10.1378 16.9391C8.24612 15.0055 6.57572 11.1691 6.57572 11.1691C6.57572 11.1691 6.47931 10.9175 6.58376 10.7963C6.70135 10.6594 7.02199 10.6508 7.02199 10.6508L9.15546 10.6372C9.15546 10.6372 9.35632 10.6694 9.5002 10.7734C9.61926 10.8594 9.68572 11.0193 9.68572 11.0193C9.68572 11.0193 10.0305 11.8753 10.487 12.6496C11.3788 14.1617 11.7936 14.4922 12.096 14.3302C12.5372 14.0943 12.405 12.1929 12.405 12.1929C12.405 12.1929 12.413 11.5032 12.1829 11.1957C12.0047 10.9576 11.6687 10.8881 11.5205 10.8687C11.3999 10.853 11.5972 10.5791 11.8528 10.4565C12.237 10.2722 12.9148 10.2615 13.716 10.2694C14.3405 10.2758 14.5202 10.3138 14.7641 10.3719C15.3303 10.506 15.3126 10.9358 15.2745 11.8634C15.2631 12.1408 15.2498 12.4627 15.2498 12.8346C15.2498 12.9182 15.2473 13.0073 15.2448 13.0989C15.2316 13.5741 15.2164 14.1183 15.5354 14.3208C15.699 14.4241 16.0985 14.3359 17.0984 12.6697C17.5725 11.8796 17.9274 10.9512 17.9274 10.9512C17.9274 10.9512 18.0056 10.7856 18.1261 10.7146C18.2495 10.6422 18.4161 10.6644 18.4161 10.6644L20.6613 10.6508C20.6613 10.6508 21.3362 10.5712 21.445 10.8709C21.5597 11.1842 21.193 11.9169 20.2756 13.1171C19.4054 14.2559 18.982 14.6751 19.0208 15.046C19.0492 15.3169 19.3245 15.562 19.8527 16.043C20.9555 17.0479 21.2511 17.5767 21.3221 17.7037C21.328 17.7142 21.3323 17.722 21.3354 17.7271C21.8299 18.5322 20.7869 18.5953 20.7869 18.5953L18.7922 18.6225C18.7922 18.6225 18.3642 18.7057 17.8004 18.3257C17.505 18.1268 17.2164 17.802 16.9414 17.4926C16.5216 17.0201 16.1338 16.5837 15.8027 16.6868C15.2469 16.8603 15.2637 18.0354 15.2637 18.0354C15.2637 18.0354 15.2681 18.287 15.1417 18.4204Z" fill="white"/>
</svg>
