<svg width="20" height="15" viewBox="0 0 20 15" fill="none" xmlns="http://www.w3.org/2000/svg">
<path id="Vector" d="M13.3036 7.50104C12.7755 7.50104 12.2787 7.19971 12.0099 6.71758L10.0007 3.14847L7.99457 6.71758C7.72271 7.20305 7.22587 7.50438 6.69778 7.50438C6.55716 7.50438 6.41654 7.4843 6.28218 7.44077L2.0012 6.12831V12.088C2.0012 12.5801 2.31368 13.0087 2.7574 13.1259L9.51322 14.9372C9.83195 15.0209 10.1663 15.0209 10.4819 14.9372L17.244 13.1259C17.6877 13.0054 18.0002 12.5768 18.0002 12.088V6.12831L13.7192 7.43742C13.5848 7.48095 13.4442 7.50104 13.3036 7.50104ZM19.9469 3.74444L18.3377 0.302569C18.2408 0.0949851 18.0314 -0.0255474 17.8158 0.00458569L10.0007 1.07264L12.8661 6.16514C12.9849 6.37607 13.2224 6.47651 13.4442 6.40955L19.6282 4.51786C19.9376 4.42076 20.0876 4.05247 19.9469 3.74444ZM1.66372 0.302569L0.0544442 3.74444C-0.0892967 4.05247 0.0638187 4.42076 0.370049 4.51451L6.55403 6.4062C6.7759 6.47316 7.01338 6.37272 7.13212 6.16179L10.0007 1.07264L2.18244 0.00458569C1.96682 -0.0221993 1.76059 0.0949851 1.66372 0.302569Z" fill="#656C7D"/>
</svg>
