<svg width="17" height="16" viewBox="0 0 17 16" fill="none" xmlns="http://www.w3.org/2000/svg">
<g id="user">
<path id="Vector" d="M8.01362 9.59988C10.2227 9.59988 12.0136 7.45087 12.0136 4.79994C12.0136 2.14901 10.2227 0 8.01362 0C5.80451 0 4.01367 2.14901 4.01367 4.79994C4.01367 7.45087 5.80451 9.59988 8.01362 9.59988Z" fill="#656C7D"/>
<path id="Vector_2" d="M15.8525 13.68C15.1325 12.24 13.7725 11.04 12.0125 10.32C11.5325 10.16 10.9725 10.16 10.5725 10.4C9.77255 10.88 8.97256 11.12 8.01257 11.12C7.05258 11.12 6.25259 10.88 5.4526 10.4C5.05261 10.24 4.49262 10.16 4.01262 10.4C2.25264 11.12 0.892662 12.32 0.172671 13.76C-0.387322 14.7999 0.492667 15.9999 1.69265 15.9999H14.3325C15.5325 15.9999 16.4125 14.7999 15.8525 13.68Z" fill="#656C7D"/>
</g>
</svg>
