<svg width="19" height="16" viewBox="0 0 19 16" fill="none" xmlns="http://www.w3.org/2000/svg">
<g id="Vector">
<path d="M4.15625 2.09346C4.15625 3.24964 3.22584 4.18692 2.07812 4.18692C0.930408 4.18692 0 3.24964 0 2.09346C0 0.937273 0.930408 0 2.07812 0C3.22584 0 4.15625 0.937273 4.15625 2.09346Z" fill="#1060C1"/>
<path d="M4.15625 8C4.15625 9.15619 3.22584 10.0935 2.07812 10.0935C0.930408 10.0935 0 9.15619 0 8C0 6.84382 0.930408 5.90654 2.07812 5.90654C3.22584 5.90654 4.15625 6.84382 4.15625 8Z" fill="#1060C1"/>
<path d="M4.15625 13.9065C4.15625 15.0627 3.22584 16 2.07812 16C0.930408 16 0 15.0627 0 13.9065C0 12.7504 0.930408 11.8131 2.07812 11.8131C3.22584 11.8131 4.15625 12.7504 4.15625 13.9065Z" fill="#1060C1"/>
<path d="M5.86328 2.05607C5.86328 1.08571 6.64416 0.299065 7.60742 0.299065H15.9941C16.9574 0.299065 17.7383 1.08571 17.7383 2.05607C17.7383 3.02644 16.9574 3.81308 15.9941 3.81308H7.60742C6.64416 3.81308 5.86328 3.02644 5.86328 2.05607Z" fill="#1060C1"/>
<path d="M5.86328 7.96262C5.86328 6.99225 6.64416 6.20561 7.60742 6.20561H14.3613C15.3246 6.20561 16.1055 6.99225 16.1055 7.96262C16.1055 8.93299 15.3246 9.71963 14.3613 9.71963H7.60742C6.64416 9.71963 5.86328 8.93299 5.86328 7.96262Z" fill="#1060C1"/>
<path d="M5.86328 13.8692C5.86328 12.8988 6.64416 12.1122 7.60742 12.1122H17.2559C18.2191 12.1122 19 12.8988 19 13.8692C19 14.8395 18.2191 15.6262 17.2559 15.6262H7.60742C6.64416 15.6262 5.86328 14.8395 5.86328 13.8692Z" fill="#1060C1"/>
</g>
</svg>
