<svg width="60" height="60" viewBox="0 0 60 60" fill="none" xmlns="http://www.w3.org/2000/svg">
<circle cx="30" cy="30" r="30" fill="#666666"/>
<mask id="mask0_2204_6549" style="mask-type:alpha" maskUnits="userSpaceOnUse" x="0" y="0" width="60" height="60">
<circle cx="30" cy="30" r="30" fill="#FDF001"/>
</mask>
<g mask="url(#mask0_2204_6549)">
<path d="M52 54.5V57.25C52 57.9793 51.7103 58.6788 51.1945 59.1945C50.6788 59.7103 49.9793 60 49.25 60H10.75C10.0207 60 9.32118 59.7103 8.80546 59.1945C8.28973 58.6788 8 57.9793 8 57.25V54.5C8 50.1239 9.73839 45.9271 12.8327 42.8327C15.9271 39.7384 20.1239 38 24.5 38H35.5C39.8761 38 44.0729 39.7384 47.1673 42.8327C50.2616 45.9271 52 50.1239 52 54.5Z" fill="#F6F6F6"/>
</g>
<path d="M30 35C36.0751 35 41 30.0751 41 24C41 17.9249 36.0751 13 30 13C23.9249 13 19 17.9249 19 24C19 30.0751 23.9249 35 30 35Z" fill="#F6F6F6"/>
</svg>
