<svg width="19" height="17" viewBox="0 0 19 17" fill="none" xmlns="http://www.w3.org/2000/svg">
<path d="M0.576336 0.5H2.7557C2.77629 0.5 2.79378 0.509615 2.81381 0.511726C2.8556 0.515994 2.89467 0.522936 2.93384 0.535976C2.96663 0.54681 2.99622 0.560178 3.0261 0.576407C3.06048 0.595122 3.09149 0.615432 3.12146 0.640713C3.14904 0.663884 3.17244 0.688555 3.19524 0.71637C3.21874 0.745028 3.23881 0.774203 3.25664 0.807411C3.27507 0.84151 3.28801 0.876501 3.29932 0.914306C3.30546 0.934803 3.31874 0.951266 3.32268 0.972795L3.65274 2.77669L17.7572 3.60094C17.8112 3.59719 17.8589 3.60507 17.9193 3.61069C18.2326 3.63921 18.4653 3.91388 18.442 4.22758C18.4401 4.25122 18.4371 4.27411 18.4326 4.29662L17.4499 9.65647C17.2251 10.4876 16.5328 11.3266 15.4915 11.3266H5.21728L5.43726 12.5289H14.0825C15.1771 12.5289 16.0679 13.4197 16.0679 14.5143C16.0679 15.6092 15.1771 16.5 14.0825 16.5C12.988 16.5 12.0972 15.6092 12.0972 14.5143C12.0972 14.216 12.168 13.9357 12.2864 13.6816H6.9777C7.09608 13.9357 7.16695 14.216 7.16695 14.5143C7.16695 15.6092 6.27615 16.5 5.18159 16.5C4.08703 16.5 3.19622 15.6092 3.19622 14.5143C3.19622 13.736 3.65073 13.0676 4.30448 12.7423L2.27526 1.65272H0.576336C0.258137 1.65272 -2.47955e-05 1.39456 -2.47955e-05 1.07636C-2.47955e-05 0.758161 0.258137 0.5 0.576336 0.5ZM4.59388 7.91965L7.03628 7.95802L6.90326 6.54254L4.32774 6.46534L4.59388 7.91965ZM16.7957 6.83912L14.355 6.76595L14.1953 8.0704L16.5634 8.1076L16.7957 6.83912ZM13.584 6.74282L10.9013 6.66243V8.01867L13.4229 8.0583L13.584 6.74282ZM10.9013 5.89325L13.6778 5.9765L13.8552 4.52763L10.9013 4.35492V5.89325ZM10.1328 4.30999L7.45063 4.15314L7.60485 5.79442L10.1328 5.87022V4.30999ZM10.9013 8.78734V10.1739H13.1639L13.329 8.82547L10.9013 8.78734ZM10.1328 8.77528L7.88164 8.73996L8.01639 10.1739H10.1328V8.77528ZM10.1328 8.00661V6.6394L7.67732 6.56576L7.80931 7.97012L10.1328 8.00661ZM4.18623 5.69193L6.83079 5.7712L6.67451 4.10779L3.8663 3.94357L4.18623 5.69193ZM14.6236 4.57256L14.4488 5.99958L16.9358 6.07416C17.0405 5.50483 17.124 5.06238 17.1951 4.72289L14.6236 4.57256ZM16.3264 9.40244L16.4231 8.87406L14.1014 8.83762L13.9378 10.1739H15.4915C15.9853 10.1739 16.2604 9.63884 16.3264 9.40244ZM7.24449 10.1739L7.10861 8.72781L4.73492 8.69053L5.00635 10.1739H7.24449ZM13.2499 14.5143C13.2499 14.9735 13.6232 15.3473 14.0825 15.3473C14.5418 15.3473 14.9152 14.9735 14.9152 14.5143C14.9152 14.055 14.5418 13.6816 14.0825 13.6816C13.6232 13.6816 13.2499 14.055 13.2499 14.5143ZM5.18159 15.3473C5.64087 15.3473 6.01423 14.9735 6.01423 14.5143C6.01423 14.055 5.64087 13.6816 5.18159 13.6816C4.7223 13.6816 4.34894 14.055 4.34894 14.5143C4.34894 14.9735 4.7223 15.3473 5.18159 15.3473Z" fill="#1060C1"/>
</svg>
