<svg width="39" height="39" viewBox="0 0 39 39" fill="none" xmlns="http://www.w3.org/2000/svg">
<path d="M2.62505 3.88477H6.87895C6.91914 3.88477 6.95329 3.90353 6.99239 3.90765C7.07396 3.91599 7.15022 3.92953 7.22667 3.95499C7.29066 3.97614 7.34843 4.00223 7.40675 4.03391C7.47386 4.07043 7.53438 4.11008 7.59288 4.15942C7.64671 4.20465 7.6924 4.25281 7.73689 4.3071C7.78276 4.36304 7.82195 4.41998 7.85674 4.4848C7.89272 4.55136 7.91798 4.61966 7.94005 4.69345C7.95204 4.73346 7.97795 4.76559 7.98564 4.80762L8.6299 8.32864L36.1604 9.9375C36.2659 9.93018 36.3589 9.94556 36.4769 9.95654C37.0884 10.0122 37.5425 10.5483 37.4971 11.1606C37.4935 11.2068 37.4876 11.2515 37.4788 11.2954L35.5606 21.7573C35.1219 23.3796 33.7706 25.0173 31.7381 25.0173H11.6837L12.1131 27.364H28.9878C31.1243 27.364 32.8631 29.1028 32.8631 31.2393C32.8631 33.3765 31.1243 35.1152 28.9878 35.1152C26.8514 35.1152 25.1126 33.3765 25.1126 31.2393C25.1126 30.6571 25.2509 30.11 25.482 29.614H15.1199C15.351 30.11 15.4893 30.6571 15.4893 31.2393C15.4893 33.3765 13.7505 35.1152 11.6141 35.1152C9.47758 35.1152 7.73882 33.3765 7.73882 31.2393C7.73882 29.7201 8.62596 28.4155 9.90202 27.7806L5.94118 6.13477H2.62505C2.00395 6.13477 1.50005 5.63086 1.50005 5.00977C1.50005 4.38867 2.00395 3.88477 2.62505 3.88477ZM10.4669 18.3672L15.2342 18.4421L14.9746 15.6792L9.94743 15.5285L10.4669 18.3672ZM34.2836 16.2581L29.5197 16.1153L29.208 18.6615L33.8303 18.7341L34.2836 16.2581ZM28.0147 16.0702L22.7784 15.9132V18.5605L27.7003 18.6378L28.0147 16.0702ZM22.7784 14.4119L28.1978 14.5744L28.5441 11.7463L22.7784 11.4092V14.4119ZM21.2784 11.3215L16.043 11.0154L16.344 14.219L21.2784 14.3669V11.3215ZM22.7784 20.0609V22.7673H27.1948L27.517 20.1353L22.7784 20.0609ZM21.2784 20.0373L16.8843 19.9684L17.1473 22.7673H21.2784V20.0373ZM21.2784 18.537V15.8683L16.4855 15.7245L16.7431 18.4657L21.2784 18.537ZM9.67122 14.0189L14.8331 14.1736L14.5281 10.9268L9.04674 10.6063L9.67122 14.0189ZM30.0439 11.834L29.7029 14.6194L34.5571 14.765C34.7616 13.6537 34.9245 12.7901 35.0633 12.1274L30.0439 11.834ZM33.3677 21.2615L33.5565 20.2301L29.0246 20.159L28.7053 22.7673H31.7381C32.7019 22.7673 33.2388 21.7229 33.3677 21.2615ZM15.6406 22.7673L15.3754 19.9447L10.7422 19.8719L11.272 22.7673H15.6406ZM27.3626 31.2393C27.3626 32.1357 28.0914 32.8652 28.9878 32.8652C29.8843 32.8652 30.6131 32.1357 30.6131 31.2393C30.6131 30.3428 29.8843 29.614 28.9878 29.614C28.0914 29.614 27.3626 30.3428 27.3626 31.2393ZM11.6141 32.8652C12.5105 32.8652 13.2393 32.1357 13.2393 31.2393C13.2393 30.3428 12.5105 29.614 11.6141 29.614C10.7176 29.614 9.98882 30.3428 9.98882 31.2393C9.98882 32.1357 10.7176 32.8652 11.6141 32.8652Z" fill="#272323"/>
</svg>
