<svg width="16" height="16" viewBox="0 0 16 16" fill="none" xmlns="http://www.w3.org/2000/svg">
<g id="_icons">
<path id="Vector" d="M0.342857 15.6503C0.571429 15.8789 0.8 15.9932 1.14286 15.9932C1.48571 15.9932 1.71429 15.8789 1.94286 15.6503L8 9.59316L14.0571 15.6503C14.2857 15.8789 14.6286 15.9932 14.8571 15.9932C15.0857 15.9932 15.4286 15.8789 15.6571 15.6503C16.1143 15.1932 16.1143 14.5074 15.6571 14.0503L9.6 7.99316L15.6571 1.93602C16.1143 1.47888 16.1143 0.793164 15.6571 0.336021C15.2 -0.121122 14.5143 -0.121122 14.0571 0.336021L8 6.39316L1.94286 0.336021C1.48571 -0.121122 0.8 -0.121122 0.342857 0.336021C-0.114286 0.793164 -0.114286 1.47888 0.342857 1.93602L6.4 7.99316L0.342857 14.0503C-0.114286 14.5074 -0.114286 15.1932 0.342857 15.6503Z" fill="#868C9A"/>
</g>
</svg>
