<svg width="14" height="12" viewBox="0 0 14 12" fill="none" xmlns="http://www.w3.org/2000/svg">
<path id="XMLID_276_" d="M13.9068 0.584C13.7413 0.224 13.3909 0 12.9924 0H1.0077C0.609247 0 0.258784 0.224 0.0928021 0.584C-0.0716802 0.941 -0.0146864 1.349 0.241286 1.648L0.241786 1.6485L5.00028 7.1855V11.5C5.00028 11.6845 5.10176 11.854 5.26425 11.941C5.33824 11.9805 5.41923 12 5.50022 12C5.59721 12 5.6937 11.9715 5.77769 11.916L8.77737 9.916C8.91636 9.823 8.99985 9.667 8.99985 9.5V7.1855L13.7588 1.6485C14.0148 1.349 14.0718 0.941 13.9068 0.584Z" fill="white"/>
</svg>
