<svg width="25" height="24" viewBox="0 0 25 24" fill="none" xmlns="http://www.w3.org/2000/svg">
<path d="M20.92 4.57996C20.4183 4.07653 19.8222 3.67709 19.1658 3.40455C18.5094 3.132 17.8057 2.9917 17.095 2.9917C16.3842 2.9917 15.6805 3.132 15.0241 3.40455C14.3678 3.67709 13.7716 4.07653 13.27 4.57996L12.5 5.35996L11.73 4.57996C11.2283 4.07653 10.6322 3.67709 9.97578 3.40455C9.31941 3.132 8.61568 2.9917 7.90496 2.9917C7.19425 2.9917 6.49052 3.132 5.83414 3.40455C5.17776 3.67709 4.58164 4.07653 4.07996 4.57996C1.95996 6.69996 1.82996 10.28 4.49996 13L12.5 21L20.5 13C23.17 10.28 23.04 6.69996 20.92 4.57996Z" fill="#272323" stroke="#272323" stroke-width="2" stroke-linecap="round" stroke-linejoin="round"/>
</svg>
