<svg width="20" height="19" viewBox="0 0 20 19" fill="none" xmlns="http://www.w3.org/2000/svg">
<path id="Vector" d="M11.1406 2.18666L11.1404 2.1869L10.3709 3.0365L10.0003 3.44565L9.6297 3.0365L8.86018 2.1869L8.85963 2.18629C7.05914 0.191864 4.18813 -0.0915834 2.27927 1.65104L11.1406 2.18666ZM11.1406 2.18666C12.9453 0.191559 15.8126 -0.0914048 17.7213 1.65104L11.1406 2.18666ZM18.0706 9.64779L18.0707 9.64769C20.0898 7.41514 19.9664 3.70443 17.7216 1.6513L18.0706 9.64779ZM18.0706 9.64779L10.5122 18.0097C10.5122 18.0097 10.5122 18.0098 10.5122 18.0098C10.2224 18.3301 9.77425 18.3301 9.48451 18.0098C9.48448 18.0098 9.48445 18.0097 9.48442 18.0097L1.92626 9.64801M18.0706 9.64779L1.92626 9.64801M1.92626 9.64801L1.92606 9.64779C-0.089413 7.41509 0.0342051 3.70414 2.27921 1.65109L1.92626 9.64801Z" stroke="#1060C1"/>
</svg>
