<svg xmlns="http://www.w3.org/2000/svg" width="18" height="18" viewBox="0 0 18 18" fill="none">
<path d="M8.99919 11.6404C10.4572 11.6404 11.6392 10.4584 11.6392 9.00035C11.6392 7.54232 10.4572 6.36035 8.99919 6.36035C7.54116 6.36035 6.35919 7.54232 6.35919 9.00035C6.35919 10.4584 7.54116 11.6404 8.99919 11.6404Z" fill="#272323"/>
<path d="M12.8712 0.200195H5.12722C3.82023 0.200195 2.56678 0.719394 1.6426 1.64357C0.718417 2.56775 0.199219 3.82121 0.199219 5.1282V12.8722C0.199219 14.1792 0.718417 15.4326 1.6426 16.3568C2.56678 17.281 3.82023 17.8002 5.12722 17.8002H12.8712C14.1782 17.8002 15.4317 17.281 16.3558 16.3568C17.28 15.4326 17.7992 14.1792 17.7992 12.8722V5.1282C17.7992 3.82121 17.28 2.56775 16.3558 1.64357C15.4317 0.719394 14.1782 0.200195 12.8712 0.200195ZM8.99922 13.2242C8.16379 13.2242 7.34712 12.9765 6.65249 12.5123C5.95786 12.0482 5.41646 11.3885 5.09675 10.6167C4.77705 9.84482 4.6934 8.99551 4.85638 8.17613C5.01937 7.35676 5.42166 6.60411 6.0124 6.01338C6.60314 5.42264 7.35578 5.02034 8.17516 4.85736C8.99453 4.69437 9.84384 4.77802 10.6157 5.09773C11.3875 5.41743 12.0472 5.95883 12.5113 6.65347C12.9755 7.3481 13.2232 8.16477 13.2232 9.0002C13.2232 10.1205 12.7782 11.1949 11.986 11.987C11.1939 12.7792 10.1195 13.2242 8.99922 13.2242ZM13.5752 5.4802C13.3664 5.4802 13.1622 5.41826 12.9885 5.30223C12.8149 5.18619 12.6795 5.02127 12.5996 4.82831C12.5197 4.63535 12.4988 4.42302 12.5395 4.21818C12.5803 4.01334 12.6808 3.82517 12.8285 3.67749C12.9762 3.52981 13.1644 3.42923 13.3692 3.38849C13.574 3.34774 13.7864 3.36865 13.9793 3.44858C14.1723 3.5285 14.3372 3.66386 14.4533 3.83751C14.5693 4.01117 14.6312 4.21534 14.6312 4.4242C14.6312 4.70426 14.52 4.97286 14.3219 5.1709C14.1239 5.36894 13.8553 5.4802 13.5752 5.4802Z" fill="#272323"/>
</svg>