<svg width="16" height="17" viewBox="0 0 16 17" fill="none" xmlns="http://www.w3.org/2000/svg">
<path id="image 1044 (Traced)" fill-rule="evenodd" clip-rule="evenodd" d="M9.59727 0.580069C8.5548 0.813666 7.72707 1.25451 6.97917 1.97445C6.17854 2.74514 5.67879 3.60919 5.42913 4.65428C5.25679 5.37553 5.2862 6.60709 5.49075 7.23873C5.56319 7.46244 5.6228 7.71575 5.62324 7.80167C5.62387 7.92457 5.02803 8.55415 2.82474 10.7585L0.0254182 13.5592L0.00621391 14.8787C-0.0100503 15.9982 0.00202274 16.2211 0.0858459 16.3491L0.184682 16.5H1.51372H2.84275L3.45147 15.8888L4.06019 15.2775V13.9847C4.06019 12.8927 4.07545 12.6765 4.15846 12.5934C4.24153 12.5104 4.45785 12.4951 5.55118 12.4951H6.84562L7.68923 11.6468C8.63637 10.6945 8.48768 10.7518 9.37733 10.9967C10.0653 11.1862 11.2411 11.2013 11.9108 11.0293C15.3696 10.1413 17.046 6.25842 15.3048 3.16778C14.6302 1.9702 13.4506 1.05928 12.0672 0.667425C11.4304 0.487081 10.2057 0.443778 9.59727 0.580069ZM12.404 3.24825C12.9514 3.41189 13.3878 4.0951 13.2981 4.64814C13.1728 5.42015 12.425 5.93671 11.7075 5.74679C10.7067 5.48197 10.3726 4.29997 11.0945 3.57778C11.4698 3.20238 11.8937 3.09569 12.404 3.24825Z" fill="#1060C1"/>
</svg>
