<svg width="22" height="23" viewBox="0 0 22 23" fill="none" xmlns="http://www.w3.org/2000/svg">
<path fill-rule="evenodd" clip-rule="evenodd" d="M10.3588 0.750004C10.0355 0.849863 9.80836 1.05445 8.04687 2.83148C6.97242 3.91538 6.0934 4.82806 6.0934 4.85961C6.0934 4.89122 6.75471 4.91709 7.56298 4.91709H9.03257V7.20642V9.49575H11.004H12.9754V7.20642V4.91709H14.4449C15.2532 4.91709 15.9145 4.89071 15.9145 4.85852C15.9145 4.82632 15.0355 3.91422 13.9611 2.8317C12.131 0.987804 11.983 0.855967 11.6182 0.746298C11.1442 0.603705 10.8294 0.604577 10.3588 0.750004ZM2.17577 8.78715C0.477149 10.5209 0.220796 10.8122 0.11771 11.1258C0.0529766 11.3228 0 11.6195 0 11.7851C0 11.9507 0.0529766 12.2474 0.11771 12.4444C0.220796 12.7579 0.477149 13.0493 2.17577 14.783C3.24298 15.8723 4.14172 16.7635 4.17283 16.7635C4.20401 16.7635 4.22954 14.5232 4.22954 11.7851C4.22954 9.04697 4.20401 6.8067 4.17283 6.8067C4.14172 6.8067 3.24298 7.69787 2.17577 8.78715ZM17.7784 11.7851C17.7784 14.5232 17.8044 16.7635 17.8362 16.7635C17.8679 16.7635 18.7645 15.8723 19.8286 14.783C21.647 12.9215 21.7705 12.7782 21.8856 12.3964C22.0456 11.8651 22.0399 11.6242 21.855 11.1156C21.7157 10.7323 21.533 10.5224 19.7969 8.75081C18.7492 7.68151 17.8663 6.8067 17.8351 6.8067C17.8039 6.8067 17.7784 9.04697 17.7784 11.7851ZM9.03257 16.3637V18.6531H7.56298C6.75471 18.6531 6.0934 18.6789 6.0934 18.7106C6.0934 18.7421 6.97242 19.6546 8.04687 20.7383C9.88012 22.5872 10.0243 22.7157 10.3897 22.8247C10.9075 22.9793 11.1681 22.9714 11.6643 22.786C12.0424 22.6447 12.2495 22.4595 13.9969 20.6995C15.0516 19.6373 15.9145 18.7422 15.9145 18.7106C15.9145 18.6789 15.2532 18.6531 14.4449 18.6531H12.9754V16.3637V14.0744H11.004H9.03257V16.3637Z" fill="#DA291C"/>
</svg>
