<svg width="15" height="15" viewBox="0 0 15 15" fill="none" xmlns="http://www.w3.org/2000/svg">
<path fill-rule="evenodd" clip-rule="evenodd" d="M2.54324 0.0595976C1.63316 0.288307 0.715938 1.04566 0.283425 1.92562C0.0779544 2.34359 0.036654 2.51877 0.00683827 3.09866C-0.112498 5.4204 1.33566 8.31517 3.91476 10.9108C6.68785 13.7014 9.84994 15.2877 11.9802 14.9567C13.0122 14.7963 14.0432 14.0726 14.6152 13.1071C15.23 12.0696 15.0896 10.6419 14.3264 10.1695C14.0196 9.97955 10.9249 9.19941 10.4784 9.19941C10.0313 9.19941 9.7627 9.3451 9.20666 9.88915L9.11594 9.97791C8.89472 10.1944 8.55804 10.2409 8.28642 10.0925C6.8239 9.29357 5.65711 8.13881 4.81248 6.65456C4.61539 6.30822 4.67202 5.87315 4.95122 5.58881L5.02406 5.51463C5.63863 4.88874 5.80413 4.61211 5.80604 4.20792C5.80759 3.87754 4.82425 0.964407 4.59743 0.627316C4.27226 0.144092 3.28878 -0.127676 2.54324 0.0595976Z" fill="#272323"/>
</svg>
