<svg width="16" height="17" viewBox="0 0 16 17" fill="none" xmlns="http://www.w3.org/2000/svg">
<path id="Vector" d="M15.6084 0.890843C15.0876 0.369997 14.2439 0.369997 13.7231 0.890843L0.3906 14.2245C-0.1302 14.7454 -0.1302 15.5891 0.3906 16.11C0.652249 16.3708 0.99306 16.5 1.33429 16.5C1.67552 16.5 2.01674 16.3698 2.27673 16.1094L15.6092 2.77568C16.1292 2.2538 16.1292 1.41169 15.6084 0.890843ZM2.66753 5.83306C4.13827 5.83306 5.33403 4.63636 5.33403 3.16632C5.33403 1.69628 4.13827 0.5 2.66753 0.5C1.1968 0.5 0.00104158 1.6967 0.00104158 3.16632C0.00104158 4.63594 1.1968 5.83306 2.66753 5.83306ZM13.3335 11.1665C11.8628 11.1665 10.667 12.3632 10.667 13.8333C10.667 15.3033 11.8628 16.5 13.3335 16.5C14.8042 16.5 16 15.3033 16 13.8333C16 12.3632 14.8042 11.1665 13.3335 11.1665Z" fill="#272323"/>
</svg>
