<svg width="22" height="22" viewBox="0 0 22 22" fill="none" xmlns="http://www.w3.org/2000/svg">
<g id="3844432_magnifier_search_zoom_icon 1">
<path id="XMLID_223_" d="M18.8471 16.9029L15.3567 13.4124C16.0779 12.3255 16.5 11.0241 16.5 9.625C16.5 5.83413 13.4159 2.75 9.625 2.75C5.83413 2.75 2.75 5.83413 2.75 9.625C2.75 13.4159 5.83413 16.5 9.625 16.5C11.0241 16.5 12.3255 16.0779 13.4124 15.3567L16.9029 18.8471C17.4391 19.3841 18.3109 19.3841 18.8471 18.8471C19.3841 18.3102 19.3841 17.4398 18.8471 16.9029ZM4.8125 9.625C4.8125 6.97125 6.97125 4.8125 9.625 4.8125C12.2787 4.8125 14.4375 6.97125 14.4375 9.625C14.4375 12.2787 12.2787 14.4375 9.625 14.4375C6.97125 14.4375 4.8125 12.2787 4.8125 9.625Z" fill="#1060C1"/>
</g>
</svg>
