<svg width="24" height="22" viewBox="0 0 24 22" fill="none" xmlns="http://www.w3.org/2000/svg">
<path d="M8.30465 6.94591C8.30465 6.94591 4.02106 7.42036 1.16353 7.73756C0.905975 7.76874 0.67824 7.9409 0.592839 8.20252C0.507439 8.46415 0.592839 8.73661 0.782618 8.90877C2.90543 10.8459 6.09508 13.7468 6.09508 13.7468C6.09237 13.7468 5.21938 17.9667 4.6392 20.7822C4.5904 21.037 4.68258 21.3068 4.90489 21.4681C5.12585 21.6294 5.41052 21.6321 5.63419 21.506C8.13385 20.0854 11.8779 17.949 11.8779 17.949C11.8779 17.949 15.6233 20.0854 18.1189 21.5074C18.3467 21.6321 18.6313 21.6294 18.8523 21.4681C19.0746 21.3068 19.1668 21.037 19.1166 20.7835C18.5365 17.9667 17.6648 13.7468 17.6648 13.7468C17.6648 13.7468 20.8545 10.8459 22.9773 8.91284C23.1671 8.73526 23.2511 8.46279 23.1671 8.20252C23.083 7.94225 22.8553 7.7701 22.5977 7.74028C19.7402 7.42036 15.4553 6.94591 15.4553 6.94591C15.4553 6.94591 13.6795 3.01749 12.4961 0.398536C12.3849 0.164024 12.1517 0 11.8779 0C11.6041 0 11.3696 0.165379 11.2638 0.398536C10.0791 3.01749 8.30465 6.94591 8.30465 6.94591Z" fill="#CDCDCD"/>
</svg>
