<svg width="12" height="12" viewBox="0 0 12 12" fill="none" xmlns="http://www.w3.org/2000/svg">
<path d="M4.10511 3.95796C4.10511 3.95796 1.83465 4.20943 0.320057 4.37756C0.183542 4.39409 0.0628346 4.48534 0.0175692 4.62401C-0.0276963 4.76268 0.0175691 4.9071 0.118159 4.99834C1.24333 6.02508 2.93396 7.56267 2.93396 7.56267C2.93252 7.56267 2.46981 9.79936 2.16229 11.2917C2.13642 11.4268 2.18528 11.5697 2.30312 11.6552C2.42023 11.7407 2.57112 11.7422 2.68967 11.6754C4.01458 10.9224 5.99908 9.79002 5.99908 9.79002C5.99908 9.79002 7.98429 10.9224 9.30705 11.6761C9.42775 11.7422 9.57864 11.7407 9.69576 11.6552C9.81359 11.5697 9.86245 11.4268 9.83586 11.2924C9.52834 9.79936 9.06635 7.56267 9.06635 7.56267C9.06635 7.56267 10.757 6.02508 11.8821 5.0005C11.9827 4.90638 12.0273 4.76196 11.9827 4.62401C11.9382 4.48605 11.8175 4.39481 11.681 4.379C10.1664 4.20943 7.8952 3.95796 7.8952 3.95796C7.8952 3.95796 6.95396 1.87575 6.32671 0.487606C6.2678 0.363306 6.14421 0.276367 5.99908 0.276367C5.85394 0.276367 5.72964 0.364024 5.6736 0.487606C5.04563 1.87575 4.10511 3.95796 4.10511 3.95796Z" fill="#FBBC04"/>
</svg>
