<svg width="24" height="22" viewBox="0 0 24 22" fill="none" xmlns="http://www.w3.org/2000/svg">
<path d="M8.66476 6.94591C8.66476 6.94591 4.38117 7.42036 1.52364 7.73756C1.26608 7.76874 1.03835 7.9409 0.952947 8.20252C0.867546 8.46415 0.952947 8.73661 1.14273 8.90877C3.26554 10.8459 6.45518 13.7468 6.45518 13.7468C6.45247 13.7468 5.57949 17.9667 4.99931 20.7822C4.95051 21.037 5.04269 21.3068 5.265 21.4681C5.48596 21.6294 5.77062 21.6321 5.99429 21.506C8.49395 20.0854 12.238 17.949 12.238 17.949C12.238 17.949 15.9834 20.0854 18.479 21.5074C18.7068 21.6321 18.9914 21.6294 19.2124 21.4681C19.4347 21.3068 19.5269 21.037 19.4767 20.7835C18.8966 17.9667 18.0249 13.7468 18.0249 13.7468C18.0249 13.7468 21.2146 10.8459 23.3374 8.91284C23.5272 8.73526 23.6112 8.46279 23.5272 8.20252C23.4431 7.94225 23.2154 7.7701 22.9578 7.74028C20.1003 7.42036 15.8154 6.94591 15.8154 6.94591C15.8154 6.94591 14.0396 3.01749 12.8562 0.398536C12.745 0.164024 12.5118 0 12.238 0C11.9642 0 11.7297 0.165379 11.624 0.398536C10.4392 3.01749 8.66476 6.94591 8.66476 6.94591Z" fill="#FBBC04"/>
</svg>
