<svg width="20" height="30" viewBox="0 0 20 30" fill="none" xmlns="http://www.w3.org/2000/svg">
<path id="image 1063 (Traced)" fill-rule="evenodd" clip-rule="evenodd" d="M6.80263 1.03558C2.53 2.63699 -0.00316547 6.4188 2.96875e-06 11.1907C0.00237929 15.1118 0.0102998 15.1265 8.51543 27.2435C9.5222 28.6778 10.483 29.8459 10.651 29.8398C10.9192 29.8301 12.3788 27.7789 17.9215 19.621C18.703 18.4711 19.272 17.4588 19.1862 17.3719C19.1004 17.285 16.7816 16.6977 14.0333 16.0668C8.95162 14.9005 7.98393 14.5579 6.93227 13.5524C5.0555 11.7579 5.00718 8.32401 6.8293 6.22143C8.3549 4.46063 11.822 4.18999 13.6525 5.68843C15.1052 6.87772 15.6576 7.98624 15.6814 9.75988C15.6975 10.9494 15.5472 11.5354 14.9709 12.5316C14.5687 13.2264 14.0058 13.9217 13.7201 14.0768C13.4342 14.2317 13.2002 14.4542 13.2002 14.571C13.2002 14.7799 16.8856 15.6769 17.7443 15.6769C18.3687 15.6769 19.7362 12.6693 19.9453 10.8366C20.4206 6.66992 17.7517 2.37303 13.7819 0.912293C11.9923 0.253599 8.73511 0.311365 6.80263 1.03558Z" fill="#FABC26"/>
</svg>
