<svg width="13" height="13" viewBox="0 0 13 13" fill="none" xmlns="http://www.w3.org/2000/svg">
<path d="M6.49441 7.77954C8.28496 7.77954 9.73649 6.03771 9.73649 3.88904C9.73649 1.74037 8.28496 -0.00146484 6.49441 -0.00146484C4.70385 -0.00146484 3.25232 1.74037 3.25232 3.88904C3.25232 6.03771 4.70385 7.77954 6.49441 7.77954Z" fill="#272323"/>
<path d="M12.8489 11.0867C12.2654 9.91953 11.1631 8.94691 9.73653 8.36333C9.34748 8.23365 8.89359 8.23365 8.56938 8.42817C7.92096 8.81722 7.27255 9.01175 6.49445 9.01175C5.71635 9.01175 5.06793 8.81722 4.41951 8.42817C4.0953 8.29849 3.64141 8.23365 3.25236 8.42817C1.82584 9.01175 0.723531 9.98437 0.139956 11.1515C-0.313937 11.9945 0.399322 12.9671 1.37195 12.9671H11.6169C12.5896 12.9671 13.3028 11.9945 12.8489 11.0867Z" fill="#272323"/>
</svg>
