<svg width="72" height="76" viewBox="0 0 72 76" fill="none" xmlns="http://www.w3.org/2000/svg">
<g filter="url(#filter0_d_2189_1265)">
<path d="M21.3353 67.7132C20.4916 67.3579 4.15143 52.5496 4.10702 52.1056C3.97382 50.7069 4.01822 50.3739 4.35124 50.0631C4.68426 49.7745 5.15049 50.0409 9.59076 53.1491C13.0764 55.5912 14.4973 56.5015 14.6083 56.2795C14.6971 56.124 14.3863 54.4589 13.92 52.5718C12.0329 45.09 11.6333 42.3148 11.6333 36.8533C11.6333 32.4352 12.0107 29.0384 13.032 24.9089C14.8525 17.4493 17.0948 12.9868 20.8246 9.43461C23.844 6.54843 26.3084 5.12754 31.2371 3.46244C36.965 1.55313 41.9825 0.753878 46.9778 0.95369C53.8381 1.24231 60.5429 3.01842 65.1829 5.77138C67.4253 7.12567 67.4697 7.14787 67.2699 7.6363C67.0923 8.12473 67.0035 8.10252 63.4068 6.81485C56.591 4.3727 49.9306 3.37364 44.4247 3.97307C41.6939 4.28389 40.1176 4.61691 36.7652 5.59377C25.4425 8.90177 21.1799 13.2976 18.5601 24.3095C17.4056 29.0828 17.1614 31.5472 17.2946 36.6313C17.3612 39.14 17.4722 41.4268 17.5388 41.7376C17.6054 42.0484 17.8053 43.2473 18.0051 44.4017C18.7155 48.5534 20.758 55.569 21.8681 57.6337L22.2677 58.3886L23.4444 57.0343C26.7968 53.1713 28.4397 51.9724 30.2824 51.9502H31.2149L30.0826 54.2369C29.461 55.4802 28.1067 58.0112 27.1076 59.8317C26.0864 61.6744 25.0429 63.8723 24.7765 64.716C24.4213 65.8038 24.0216 66.5143 23.4444 67.1137C22.6008 67.9352 22.1567 68.0684 21.3353 67.7132Z" fill="#666666"/>
</g>
<defs>
<filter id="filter0_d_2189_1265" x="0.0371094" y="0.923828" width="71.3086" height="74.9746" filterUnits="userSpaceOnUse" color-interpolation-filters="sRGB">
<feFlood flood-opacity="0" result="BackgroundImageFix"/>
<feColorMatrix in="SourceAlpha" type="matrix" values="0 0 0 0 0 0 0 0 0 0 0 0 0 0 0 0 0 0 127 0" result="hardAlpha"/>
<feOffset dy="4"/>
<feGaussianBlur stdDeviation="2"/>
<feComposite in2="hardAlpha" operator="out"/>
<feColorMatrix type="matrix" values="0 0 0 0 0 0 0 0 0 0 0 0 0 0 0 0 0 0 0.25 0"/>
<feBlend mode="normal" in2="BackgroundImageFix" result="effect1_dropShadow_2189_1265"/>
<feBlend mode="normal" in="SourceGraphic" in2="effect1_dropShadow_2189_1265" result="shape"/>
</filter>
</defs>
</svg>
