<svg width="120" height="137" viewBox="0 0 120 137" fill="none" xmlns="http://www.w3.org/2000/svg">
<path d="M8.80604 136.114C10.3488 135.163 36.614 111.826 37.7418 110.409C39.4924 108.206 39.9101 107.204 39.3098 106.415C38.8754 105.813 38.6603 105.773 36.9422 106.225C34.4851 106.886 32.3055 108.276 28.1062 111.943C25.0289 114.647 20.4734 117.77 20.0777 117.441C19.8089 117.27 48.2458 64.7347 50.8462 60.63C54.3298 55.1081 57.3707 50.9063 59.3606 48.9139L61.5024 46.7603L62.5919 47.5499C64.9177 49.1784 65.8091 51.2886 67.3468 58.4782C67.7007 60.2449 68.1763 62.3788 68.3655 63.2255C68.5548 64.0722 69.0062 66.0348 69.336 67.6303C70.8157 74.4088 71.9904 76.7935 74.4295 77.9868C77.4649 79.4453 80.4082 77.7727 84.944 72.0325C95.2024 59.0574 108.468 33.4657 117.308 9.68588C119.614 3.49158 120.156 0.899674 119.336 0.281749C118.862 -0.105606 118.602 0.0357961 117.382 1.29088C115.828 2.90738 113.565 7.1742 107.755 19.2426C100.949 33.408 95.3183 43.7742 88.9396 54.0363C85.922 58.8986 77.8833 70.0236 77.5706 69.7882C77.3752 69.6411 77.2052 68.9314 76.0034 62.6377C74.7384 56.1434 71.3212 46.7733 69.0328 43.4277C66.881 40.3074 64.3247 39.0259 61.1342 39.4408C57.4347 39.9624 53.9367 42.6565 49.8563 48.1578C43.7648 56.4929 41.89 59.7966 20.892 100.173C14.5194 112.461 9.17844 122.402 9.05636 122.279C8.90485 122.196 8.3472 119.48 7.82953 116.304C6.75993 109.956 6.49206 109.296 4.24404 107.97L3.17383 107.318L1.91866 108.822C1.26165 109.614 0.604192 110.65 0.525129 111.08C0.254134 112.131 0.990228 124.29 1.55879 129.066C1.90564 132.021 2.20687 133.167 2.86513 134.367C4.31823 136.992 6.39149 137.573 8.80604 136.114Z" fill="#252527"/>
</svg>
