<svg width="20" height="20" viewBox="0 0 20 20" fill="none" xmlns="http://www.w3.org/2000/svg">
<path fill-rule="evenodd" clip-rule="evenodd" d="M11.7671 9.36028H14.0736C14.4234 9.36028 14.6981 9.07114 14.6981 8.72246C14.6981 8.36529 14.4234 8.08465 14.0736 8.08465H11.7671C11.4174 8.08465 11.1426 8.36529 11.1426 8.72246C11.1426 9.07114 11.4174 9.36028 11.7671 9.36028ZM16.8132 4.93893C17.3211 4.93893 17.6542 5.11752 17.9872 5.50871C18.3203 5.89991 18.3786 6.46119 18.3037 6.97059L17.5126 12.5494C17.3627 13.6218 16.4634 14.4118 15.4059 14.4118H6.32134C5.21387 14.4118 4.29792 13.5452 4.20632 12.4227L3.44025 3.15219L2.1829 2.93107C1.84982 2.87155 1.61667 2.53988 1.67496 2.19971C1.73325 1.85189 2.058 1.62142 2.3994 1.6733L4.38535 1.9786C4.66846 2.03048 4.87663 2.26774 4.90161 2.55689L5.05982 4.46184C5.0848 4.73482 5.3013 4.93893 5.56776 4.93893H16.8132ZM6.18794 15.7559C5.48849 15.7559 4.92226 16.3342 4.92226 17.0485C4.92226 17.7544 5.48849 18.3327 6.18794 18.3327C6.87907 18.3327 7.4453 17.7544 7.4453 17.0485C7.4453 16.3342 6.87907 15.7559 6.18794 15.7559ZM15.5556 15.7559C14.8562 15.7559 14.29 16.3342 14.29 17.0485C14.29 17.7544 14.8562 18.3327 15.5556 18.3327C16.2468 18.3327 16.813 17.7544 16.813 17.0485C16.813 16.3342 16.2468 15.7559 15.5556 15.7559Z" fill="white"/>
</svg>
