<svg width="13" height="13" viewBox="0 0 13 13" fill="none" xmlns="http://www.w3.org/2000/svg">
<path fill-rule="evenodd" clip-rule="evenodd" d="M0.25 6.50939C0.25 3.21695 2.88125 0.25 6.5125 0.25C10.0625 0.25 12.75 3.16062 12.75 6.49061C12.75 10.3527 9.6 12.75 6.5 12.75C5.475 12.75 4.3375 12.4746 3.425 11.9363C3.10625 11.7422 2.8375 11.5983 2.49375 11.7109L1.23125 12.0865C0.9125 12.1867 0.625 11.9363 0.71875 11.5983L1.1375 10.1962C1.20625 10.0021 1.19375 9.79557 1.09375 9.63282C0.55625 8.64384 0.25 7.56097 0.25 6.50939ZM5.6875 6.50939C5.6875 6.95381 6.04375 7.31059 6.4875 7.31685C6.93125 7.31685 7.2875 6.95381 7.2875 6.51565C7.2875 6.07123 6.93125 5.71445 6.4875 5.71445C6.05 5.70819 5.6875 6.07123 5.6875 6.50939ZM8.56875 6.51565C8.56875 6.95381 8.925 7.31685 9.36875 7.31685C9.8125 7.31685 10.1687 6.95381 10.1687 6.51565C10.1687 6.07123 9.8125 5.71445 9.36875 5.71445C8.925 5.71445 8.56875 6.07123 8.56875 6.51565ZM3.60625 7.31685C3.16875 7.31685 2.80625 6.95381 2.80625 6.51565C2.80625 6.07123 3.1625 5.71445 3.60625 5.71445C4.05 5.71445 4.40625 6.07123 4.40625 6.51565C4.40625 6.95381 4.05 7.31059 3.60625 7.31685Z" fill="white"/>
</svg>
