<svg width="13" height="13" viewBox="0 0 13 13" fill="none" xmlns="http://www.w3.org/2000/svg">
<path fill-rule="evenodd" clip-rule="evenodd" d="M3.79375 0.25H9.2125C11.3313 0.25 12.75 1.7375 12.75 3.95V9.05687C12.75 11.2631 11.3313 12.75 9.2125 12.75H3.79375C1.675 12.75 0.25 11.2631 0.25 9.05687V3.95C0.25 1.7375 1.675 0.25 3.79375 0.25ZM6.49375 4.66313C6.2 4.66313 5.95625 4.41875 5.95625 4.11937C5.95625 3.81312 6.2 3.56937 6.50625 3.56937C6.80625 3.56937 7.05 3.81312 7.05 4.11937C7.05 4.41875 6.80625 4.66313 6.49375 4.66313ZM7.04375 8.86312C7.04375 9.16313 6.8 9.40687 6.49375 9.40687C6.19375 9.40687 5.95 9.16313 5.95 8.86312V6.10062C5.95 5.8 6.19375 5.55062 6.49375 5.55062C6.8 5.55062 7.04375 5.8 7.04375 6.10062V8.86312Z" fill="white"/>
</svg>
