<svg width="23" height="23" viewBox="0 0 23 23" fill="none" xmlns="http://www.w3.org/2000/svg">
<path d="M9.59789 1.5416C10.1966 -0.301022 12.8034 -0.301019 13.4021 1.5416L14.6011 5.2317C14.8688 6.05575 15.6368 6.61367 16.5032 6.61367H20.3832C22.3207 6.61367 23.1262 9.0929 21.5588 10.2317L18.4198 12.5123C17.7188 13.0216 17.4255 13.9243 17.6933 14.7484L18.8922 18.4385C19.4909 20.2811 17.382 21.8133 15.8146 20.6745L12.6756 18.3939C11.9746 17.8846 11.0254 17.8847 10.3244 18.3939L7.18544 20.6745C5.61801 21.8134 3.50906 20.2811 4.10776 18.4385L5.30675 14.7484C5.57449 13.9243 5.28118 13.0216 4.5802 12.5123L1.44121 10.2317C-0.126214 9.0929 0.679339 6.61367 2.61679 6.61367H6.49679C7.36324 6.61367 8.13115 6.05575 8.3989 5.2317L9.59789 1.5416Z" fill="#666666"/>
</svg>
