<svg width="16" height="16" viewBox="0 0 16 16" fill="none" xmlns="http://www.w3.org/2000/svg">
<path d="M6.57342 1.39057C7.02244 0.00860715 8.97756 0.00861025 9.42659 1.39058L10.1329 3.56434C10.3337 4.18237 10.9096 4.60081 11.5595 4.60081H13.8451C15.2982 4.60081 15.9023 6.46024 14.7268 7.31434L12.8777 8.6578C12.3519 9.03976 12.1319 9.71681 12.3328 10.3348L13.0391 12.5086C13.4881 13.8906 11.9064 15.0398 10.7308 14.1857L8.88168 12.8422C8.35595 12.4602 7.64405 12.4602 7.11832 12.8422L5.26921 14.1857C4.09364 15.0398 2.51192 13.8906 2.96095 12.5086L3.66725 10.3348C3.86806 9.71681 3.64807 9.03976 3.12234 8.6578L1.27322 7.31434C0.0976527 6.46023 0.701818 4.60081 2.1549 4.60081H4.44053C5.09037 4.60081 5.66631 4.18237 5.86712 3.56434L6.57342 1.39057Z" fill="#E10000"/>
</svg>
