<svg width="41" height="41" viewBox="0 0 41 41" fill="none" xmlns="http://www.w3.org/2000/svg">
<path d="M40.9154 20.5007C40.9154 31.7788 31.7748 40.9173 20.4987 40.9173C9.22257 40.9173 0.0820312 31.7788 0.0820312 20.5007C0.0820312 9.22657 9.22257 0.0839844 20.4987 0.0839844C31.7748 0.0839844 40.9154 9.22657 40.9154 20.5007Z" fill="url(#paint0_radial_891_1834)"/>
<path d="M27.7948 28.289C27.5273 28.289 27.2578 28.2196 27.0108 28.0746L18.9952 23.293C18.5338 23.0154 18.25 22.5152 18.25 21.9762V11.6719C18.25 10.8266 18.936 10.1406 19.7812 10.1406C20.6265 10.1406 21.3125 10.8266 21.3125 11.6719V21.1064L28.5808 25.4409C29.3056 25.8758 29.5445 26.8149 29.1117 27.5417C28.8238 28.0215 28.3154 28.289 27.7948 28.289Z" fill="#D9D9D9"/>
<defs>
<radialGradient id="paint0_radial_891_1834" cx="0" cy="0" r="1" gradientUnits="userSpaceOnUse" gradientTransform="translate(20.4987 20.5007) rotate(90) scale(20.4167)">
<stop stop-color="#1F1F1F"/>
<stop offset="1" stop-color="#2E2E2E"/>
</radialGradient>
</defs>
</svg>
