<svg width="17" height="17" viewBox="0 0 17 17" fill="none" xmlns="http://www.w3.org/2000/svg">
<g id="Chat">
<path id="Stroke 4" fill-rule="evenodd" clip-rule="evenodd" d="M13.5087 13.5079C11.3439 15.6729 8.13843 16.1407 5.51522 14.9275C5.12796 14.7716 4.81047 14.6456 4.50864 14.6456C3.66793 14.6506 2.6215 15.4657 2.07763 14.9225C1.53377 14.3786 2.34957 13.3313 2.34957 12.4856C2.34957 12.1837 2.22855 11.8719 2.07265 11.4839C0.858926 8.86107 1.32733 5.65449 3.4921 3.49019C6.25555 0.725721 10.7453 0.725721 13.5087 3.48947C16.2771 6.25821 16.2722 10.7441 13.5087 13.5079Z" stroke="white" stroke-width="2" stroke-linecap="round" stroke-linejoin="round"/>
<path id="Stroke 11" d="M11.2904 8.79264H11.2968" stroke="white" stroke-width="2.5" stroke-linecap="round" stroke-linejoin="round"/>
<path id="Stroke 13" d="M8.45059 8.79264H8.45696" stroke="white" stroke-width="2.5" stroke-linecap="round" stroke-linejoin="round"/>
<path id="Stroke 15" d="M5.61074 8.79264H5.61712" stroke="white" stroke-width="2.5" stroke-linecap="round" stroke-linejoin="round"/>
</g>
</svg>
