<svg width="19" height="19" viewBox="0 0 19 19" fill="none" xmlns="http://www.w3.org/2000/svg">
<g id="copy 1">
<g id="Group">
<path id="Vector" d="M8.99868 0.867048C8.87557 0.903721 8.71316 1.07399 8.67648 1.2102C8.61624 1.44334 8.70792 1.68695 8.907 1.81006L9.00654 1.87293L12.1263 1.88603L15.2435 1.89913L15.4426 1.99605C15.681 2.11392 15.8277 2.26585 15.9429 2.50947L16.0268 2.68497L16.0399 6.84995L16.053 11.0149L16.1158 11.1145C16.1499 11.1695 16.2258 11.2455 16.2835 11.2847C16.3725 11.345 16.4197 11.3555 16.5638 11.3555C16.7078 11.3555 16.755 11.345 16.844 11.2847C16.9017 11.2455 16.9776 11.1695 17.0117 11.1145L17.0746 11.0149V6.81066C17.0746 2.96526 17.0719 2.59329 17.03 2.44922C16.9174 2.03796 16.7445 1.7341 16.4721 1.45905C16.2939 1.27569 15.9901 1.07137 15.7831 0.995403C15.3745 0.840854 15.6234 0.851332 12.2154 0.846092C10.277 0.843473 9.05107 0.851332 8.99868 0.867048Z" fill="white" stroke="white" stroke-width="0.5"/>
<path id="Vector_2" d="M5.5445 4.95518C4.66173 5.13592 4.00686 5.81699 3.87065 6.69714C3.84707 6.84121 3.84183 7.88114 3.84707 10.6788C3.85493 14.8044 3.84445 14.4901 3.999 14.9014C4.17189 15.365 4.68269 15.8758 5.14634 16.0487C5.54974 16.2006 5.36113 16.1928 8.43903 16.1928C11.5169 16.1928 11.3283 16.2006 11.7317 16.0487C12.198 15.8758 12.7062 15.3676 12.8791 14.9014C13.0336 14.4927 13.0231 14.7887 13.0231 10.5609C13.0231 7.02195 13.0205 6.67094 12.9786 6.52687C12.866 6.11561 12.6931 5.81175 12.4206 5.53671C12.2425 5.35334 11.9387 5.14902 11.7317 5.07306C11.3257 4.92113 11.5379 4.92898 8.50452 4.92375C6.27533 4.92113 5.68071 4.92636 5.5445 4.95518ZM11.365 6.0606C11.6086 6.17586 11.7605 6.32255 11.8784 6.56092L11.9753 6.76V10.5609V14.3618L11.8784 14.5608C11.7605 14.7992 11.6086 14.9459 11.365 15.0612L11.1895 15.145H8.43903H5.68857L5.51306 15.0612C5.26945 14.9459 5.11752 14.7992 4.99964 14.5608L4.90272 14.3618V10.5635V6.76262L4.98655 6.58712C5.03108 6.4902 5.11752 6.35922 5.17515 6.29636C5.29041 6.17062 5.52878 6.03179 5.69119 5.9925C5.75144 5.9794 6.91711 5.96892 8.49142 5.97154L11.1895 5.97678L11.365 6.0606Z" fill="white" stroke="white" stroke-width="0.5"/>
</g>
</g>
</svg>
