<svg width="17" height="17" viewBox="0 0 17 17" fill="none" xmlns="http://www.w3.org/2000/svg">
<g id="dollar-icon-money-sign-dollar-money-cash-icon-cash-register-vector-illustration_230920-2583 1">
<g id="Group">
<path id="Vector" d="M6.80769 1.91989L6.78609 2.83564L6.30389 2.93094C5.29629 3.12569 4.2527 3.52762 3.64814 3.95856C3.18033 4.28591 2.69093 4.87017 2.53259 5.28453C2.43903 5.53315 2.42463 5.73204 2.45342 6.13398C2.511 6.95028 2.85646 7.4268 3.82807 8.02762C4.32467 8.34254 5.2675 8.73619 6.05918 8.96409C6.30389 9.03453 7.00921 9.21685 7.62816 9.37017C8.95243 9.69751 9.44903 9.85912 9.91685 10.1202C10.3559 10.3605 10.4998 10.5262 10.543 10.8287C10.6222 11.2845 10.2047 11.6657 9.39865 11.8812C8.95963 11.9972 8.90925 12.0014 7.86566 11.9972C6.90845 11.9972 6.71412 11.9807 6.15275 11.8854C5.41864 11.7528 4.62695 11.5331 3.87126 11.239C3.48981 11.0898 3.32427 11.0442 3.28829 11.0815C3.18753 11.1768 2 13.1119 2 13.1699C2 13.2528 3.15154 13.6713 3.82807 13.8287C4.52619 13.9945 5.60576 14.1644 6.18154 14.2017L6.60617 14.2307L6.62056 15.105L6.64215 15.9793L8.49182 15.9917L10.3487 16L10.3631 15.0635L10.3847 14.1312L11.0036 13.9945C11.968 13.7873 12.6086 13.547 13.3355 13.1243C14.6094 12.3826 15.1708 11.4461 14.9548 10.4019C14.6598 8.9268 13.1556 7.99033 9.80889 7.19475C8.19673 6.81354 7.14595 6.41575 6.92284 6.10912C6.59897 5.67403 7.03799 5.16022 7.88006 4.9779C8.18234 4.9116 8.44144 4.89503 9.07478 4.89503C10.3559 4.89503 11.1692 5.03177 12.5222 5.47928C12.8749 5.5953 13.17 5.68646 13.1843 5.67818C13.1915 5.66989 13.5082 5.18923 13.8897 4.61326L14.5806 3.56492L14.2783 3.45718C13.3427 3.11326 12.112 2.83978 11.09 2.74033L10.5646 2.69061V1.8453V1L8.69334 1.00414L6.82208 1.00829L6.80769 1.91989Z" fill="#D9FF20"/>
</g>
</g>
</svg>
