<svg width="257" height="27" viewBox="0 0 257 27" fill="none" xmlns="http://www.w3.org/2000/svg">
<path d="M14.56 1.232C16.096 1.232 17.464 1.592 18.664 2.312C19.864 3.008 20.8 3.98 21.472 5.228C22.144 6.452 22.48 7.832 22.48 9.368V9.836C22.48 11.372 22.144 12.764 21.472 14.012C20.8 15.26 19.864 16.244 18.664 16.964C17.464 17.66 16.096 18.008 14.56 18.008H8.62V26H0.664V1.232H14.56ZM8.62 12.212H11.896C12.736 12.212 13.36 11.996 13.768 11.564C14.2 11.132 14.416 10.544 14.416 9.8V9.512C14.416 8.744 14.2 8.156 13.768 7.748C13.36 7.316 12.736 7.1 11.896 7.1H8.62V12.212ZM51.3045 16.028C51.3045 19.412 50.2365 21.992 48.1005 23.768C45.9645 25.544 42.9285 26.432 38.9925 26.432C35.0565 26.432 32.0085 25.544 29.8485 23.768C27.7125 21.992 26.6445 19.412 26.6445 16.028V1.232H34.6005V15.92C34.6005 17.312 34.9725 18.428 35.7165 19.268C36.4605 20.084 37.5405 20.492 38.9565 20.492C40.3725 20.492 41.4525 20.072 42.1965 19.232C42.9645 18.392 43.3485 17.288 43.3485 15.92V1.232H51.3045V16.028ZM77.9088 26V17.072C77.9088 15.968 77.9448 14.84 78.0168 13.688C78.1128 12.512 78.2088 11.528 78.3048 10.736C78.4008 9.944 78.4608 9.44 78.4848 9.224H78.3408L73.7688 26H67.5408L62.9328 9.26H62.7888C62.8128 9.476 62.8728 9.98 62.9688 10.772C63.0888 11.54 63.1968 12.512 63.2928 13.688C63.3888 14.84 63.4368 15.968 63.4368 17.072V26H56.1288V1.232H67.3608L71.1048 15.524H71.2488L74.9568 1.232H85.7928V26H77.9088ZM104.525 1.232C106.061 1.232 107.429 1.592 108.629 2.312C109.829 3.008 110.765 3.98 111.437 5.228C112.109 6.452 112.445 7.832 112.445 9.368V9.836C112.445 11.372 112.109 12.764 111.437 14.012C110.765 15.26 109.829 16.244 108.629 16.964C107.429 17.66 106.061 18.008 104.525 18.008H98.5848V26H90.6288V1.232H104.525ZM98.5848 12.212H101.861C102.701 12.212 103.325 11.996 103.733 11.564C104.165 11.132 104.381 10.544 104.381 9.8V9.512C104.381 8.744 104.165 8.156 103.733 7.748C103.325 7.316 102.701 7.1 101.861 7.1H98.5848V12.212ZM109.356 26V18.836H116.988V26H109.356ZM138.3 1.232C139.548 1.232 140.688 1.496 141.72 2.024C142.776 2.528 143.604 3.248 144.204 4.184C144.828 5.12 145.14 6.164 145.14 7.316C145.14 10.364 143.76 12.284 141 13.076V13.22C144.144 13.94 145.716 16.004 145.716 19.412C145.716 20.708 145.392 21.86 144.744 22.868C144.12 23.852 143.256 24.62 142.152 25.172C141.048 25.724 139.836 26 138.516 26H121.812V1.232H138.3ZM129.768 10.88H135.24C135.768 10.88 136.2 10.7 136.536 10.34C136.896 9.956 137.076 9.488 137.076 8.936V8.576C137.076 8.048 136.896 7.604 136.536 7.244C136.176 6.86 135.744 6.668 135.24 6.668H129.768V10.88ZM129.768 20.24H135.816C136.344 20.24 136.776 20.06 137.112 19.7C137.472 19.316 137.652 18.848 137.652 18.296V17.936C137.652 17.384 137.472 16.928 137.112 16.568C136.776 16.184 136.344 15.992 135.816 15.992H129.768V20.24ZM149.832 1.232H157.788V19.664H170.496V26H149.832V1.232ZM190.44 26L189.396 22.508H180.72L179.676 26H171.54L180.576 1.232H189.828L198.864 26H190.44ZM182.376 16.964H187.74L185.148 8.144H185.004L182.376 16.964ZM213.038 0.799998C216.71 0.799998 219.614 1.724 221.75 3.572C223.886 5.396 224.954 8.012 224.954 11.42H217.358C217.358 9.98 216.974 8.84 216.206 8C215.462 7.16 214.394 6.74 213.002 6.74C211.394 6.74 210.206 7.244 209.438 8.252C208.694 9.26 208.322 10.664 208.322 12.464V14.768C208.322 16.544 208.694 17.948 209.438 18.98C210.206 19.988 211.37 20.492 212.93 20.492C214.466 20.492 215.63 20.096 216.422 19.304C217.214 18.512 217.61 17.396 217.61 15.956H224.954C224.954 19.34 223.91 21.932 221.822 23.732C219.758 25.532 216.83 26.432 213.038 26.432C208.814 26.432 205.61 25.352 203.426 23.192C201.266 21.032 200.186 17.84 200.186 13.616C200.186 9.392 201.266 6.2 203.426 4.04C205.61 1.88 208.814 0.799998 213.038 0.799998ZM246.026 1.232H255.89L246.998 11.42L256.07 26H246.674L241.526 16.928L237.206 20.456V26H229.25V1.232H237.206V11.816L246.026 1.232Z" fill="white"/>
</svg>
