<svg width="24" height="24" viewBox="0 0 24 24" fill="none" xmlns="http://www.w3.org/2000/svg">
<path d="M8.5 5.5H7.5C6.94772 5.5 6.5 5.94772 6.5 6.5V17.5C6.5 18.0523 6.94772 18.5 7.5 18.5H8.5C9.05228 18.5 9.5 18.0523 9.5 17.5V6.5C9.5 5.94772 9.05228 5.5 8.5 5.5Z" fill="white" stroke="white" stroke-width="1.75" stroke-linecap="round" stroke-linejoin="round"/>
<path d="M16.5 5.5H15.5C14.9477 5.5 14.5 5.94772 14.5 6.5V17.5C14.5 18.0523 14.9477 18.5 15.5 18.5H16.5C17.0523 18.5 17.5 18.0523 17.5 17.5V6.5C17.5 5.94772 17.0523 5.5 16.5 5.5Z" fill="white" stroke="white" stroke-width="1.75" stroke-linecap="round" stroke-linejoin="round"/>
</svg>
