<svg width="17" height="17" viewBox="0 0 17 17" fill="none" xmlns="http://www.w3.org/2000/svg">
<g id="solana-sol-logo 1">
<path id="Vector" d="M4.11209 12.1469C4.19053 12.0541 4.29839 12 4.41279 12H14.7869C14.9765 12 15.0712 12.2706 14.9372 12.4291L12.8879 14.8531C12.8095 14.9459 12.7016 15 12.5872 15H2.21311C2.02354 15 1.92875 14.7294 2.06276 14.5709L4.11209 12.1469Z" fill="#D9FF20"/>
<path id="Vector_2" d="M4.11209 2.14691C4.1938 2.05412 4.30166 2 4.41279 2H14.7869C14.9765 2 15.0712 2.27062 14.9372 2.42912L12.8879 4.85309C12.8095 4.94588 12.7016 5 12.5872 5H2.21311C2.02354 5 1.92875 4.72938 2.06276 4.57088L4.11209 2.14691Z" fill="#D9FF20"/>
<path id="Vector_3" d="M12.8879 7.14691C12.8095 7.05412 12.7016 7 12.5872 7H2.21311C2.02354 7 1.92875 7.27062 2.06276 7.42912L4.11209 9.85309C4.19053 9.94588 4.29839 10 4.41279 10H14.7869C14.9765 10 15.0712 9.72938 14.9372 9.57088L12.8879 7.14691Z" fill="#D9FF20"/>
</g>
</svg>
