<svg width="39" height="37" viewBox="0 0 39 37" fill="none" xmlns="http://www.w3.org/2000/svg">
<path fill-rule="evenodd" clip-rule="evenodd" d="M23.6437 14.7321L13.8068 24.5879C13.5511 24.4396 13.3089 24.3452 13.0936 24.3317C11.2231 24.1969 10.4965 24.4126 9.47374 23.5362C8.37028 22.5924 8.45102 20.0712 8.45102 18.2241C8.45102 16.377 8.37028 13.8557 9.47374 12.912C10.4965 12.0356 11.2231 12.2648 13.0936 12.1165C14.9641 11.9682 18.9204 6.25156 21.9751 8.05823C23.2131 9.06942 23.5495 10.957 23.6437 14.7321Z" stroke="white" stroke-width="2.5" stroke-linecap="round" stroke-linejoin="round"/>
<path d="M23.6435 21.2114C23.5848 24.9107 23.2325 26.7123 21.8232 27.6491C20.2818 28.3938 18.5348 27.7092 16.8906 26.7363" stroke="white" stroke-width="2.5" stroke-linecap="round" stroke-linejoin="round"/>
<path d="M8.44971 29.6525L13.5429 24.1675L22.8976 14.0933L30.3966 6.0174" stroke="white" stroke-width="2.5" stroke-linecap="round" stroke-linejoin="round"/>
</svg>
